<?xml version="1.0" encoding="utf-8"?>
<!-- Generator: Adobe Illustrator 28.3.0, SVG Export Plug-In . SVG Version: 6.00 Build 0)  -->
<svg version="1.1" id="a" xmlns="http://www.w3.org/2000/svg" xmlns:xlink="http://www.w3.org/1999/xlink" x="0px" y="0px"
	 viewBox="0 0 500 350.7" style="enable-background:new 0 0 500 350.7;" xml:space="preserve">
<style type="text/css">
	.st0{fill:#FFFFFF;}
	.st1{clip-path:url(#SVGID_00000061460395721663654120000007176108592667584697_);}
</style>
<g>
	<g>
		<path class="st0" d="M266.7,298.8c0,2.5-2.9,3.6-6.4,3.6c-3.7,0-7.3-1.3-7.3-8.4v-18.8h-2.3c-1.6,0-2.6-1-2.6-2.6s1.1-2.6,2.6-2.6
			h2.3v-4.8c0-1.7,1.5-3.2,3.2-3.2c1.7,0,3.3,1.5,3.3,3.2v4.8h4.5c1.6,0,2.7,1,2.7,2.6s-1.1,2.6-2.7,2.6h-4.5v18.8
			c0,1.9,0.7,2.7,2.2,2.7c0.8,0,1.7-0.2,2.4-0.3C265.6,296.2,266.7,297.2,266.7,298.8"/>
		<path class="st0" d="M297.2,272.7c0,1.9-1.4,3.1-4.2,3.1c-5.4,0-8.9,4.2-9.4,7.5v15.9c0,1.8-1.5,3.3-3.3,3.3s-3.3-1.5-3.3-3.3v-26
			c0-1.9,1.5-3.3,3.3-3.3s3.3,1.5,3.3,3.3v4.1c0.3-2.2,4.2-7.5,10.2-7.5C296,269.7,297.2,271.1,297.2,272.7"/>
		<path class="st0" d="M329.9,275.6v-2.5c0-1.8,1.5-3.3,3.3-3.3s3.3,1.5,3.3,3.3v26.1c0,1.8-1.5,3.3-3.3,3.3s-3.3-1.5-3.3-3.3v-3.3
			c-0.4,2.8-4.3,6.7-10.1,6.7c-6.9,0-15-5.3-15-16.5s8.3-16.4,15-16.4C324.4,269.6,328.3,272,329.9,275.6 M330.2,286.1
			c0-7.7-5.2-10.8-9.4-10.8c-4.5,0-9.6,3.5-9.6,10.8s5.1,10.9,9.6,10.9C325,296.9,330.2,293.7,330.2,286.1"/>
		<path class="st0" d="M380,261.3v37.9c0,1.8-1.5,3.3-3.3,3.3s-3.3-1.5-3.3-3.3v-3.3c-0.4,2.8-4.3,6.7-10.1,6.7
			c-6.9,0-15-5.3-15-16.5s8.3-16.4,15-16.4c4.6,0,8.5,2.3,10.1,5.9v-2.5c0-0.2,0-0.4,0.1-0.6v-11.2c0-1.8,1.5-3.3,3.2-3.3
			S380,259.5,380,261.3 M373.7,286.1c0-7.7-5.2-10.8-9.4-10.8c-4.5,0-9.6,3.5-9.6,10.8s5.1,10.9,9.6,10.9
			C368.5,296.9,373.7,293.7,373.7,286.1"/>
		<path class="st0" d="M393.1,260.7c0-1.8,1.5-3.3,3.3-3.3s3.3,1.5,3.3,3.3s-1.5,3.3-3.3,3.3S393.1,262.5,393.1,260.7 M399.7,273.2
			v26c0,1.9-1.5,3.3-3.3,3.3s-3.3-1.5-3.3-3.3v-26c0-1.9,1.5-3.3,3.3-3.3S399.7,271.3,399.7,273.2"/>
		<path class="st0" d="M442.3,284v15.2c0,1.8-1.4,3.3-3.2,3.3s-3.3-1.5-3.3-3.3V284c0-6.2-3.5-8.6-7.5-8.6c-5.9,0-8.5,5.3-8.9,8
			v15.9c0,1.8-1.5,3.3-3.3,3.3s-3.3-1.5-3.3-3.3v-26c0-1.9,1.5-3.3,3.3-3.3s3.3,1.5,3.3,3.3v4.1c0.3-2.2,4-7.5,11-7.5
			C436.4,269.7,442.3,273.5,442.3,284"/>
		<path class="st0" d="M485.5,299.2c0,0.2,0,0.4-0.1,0.6v1.7c0,10.1-9.1,13.3-15.7,13.3c-4,0-7-1.1-8.5-1.9c-1.3-0.6-2-1.5-2-2.8
			c0-1.5,1.2-2.6,2.6-2.6c0.4,0,0.9,0.1,1.5,0.3c1.4,0.6,3.6,1.3,6.5,1.3c5.4,0,9-2.8,9-7.6v-5.6c-0.4,2.8-4.3,6.7-10.1,6.7
			c-6.9,0-15-5.3-15-16.5s8.3-16.4,15-16.4c4.6,0,8.5,2.3,10.1,5.9v-2.5c0-1.8,1.5-3.3,3.3-3.3s3.3,1.5,3.3,3.3L485.5,299.2
			L485.5,299.2z M479.2,286.1c0-7.7-5.2-10.8-9.4-10.8c-4.5,0-9.6,3.5-9.6,10.8s5.1,10.9,9.6,10.9
			C474,296.9,479.2,293.7,479.2,286.1"/>
	</g>
</g>
<g>
	<defs>
		<path id="SVGID_1_" d="M0,127.8c0,1.8,0.9,3.4,1.6,5.4L31,218.9c3-13.7,6.6-27.3,9.3-37.3l-18.9-58.5c-1.4-3.8-5.8-6.5-10.1-6.5
			C4.9,116.6,0,121.5,0,127.8 M151.7,123.1l-24.7,76.4L98.8,128c-3.8,7.6-8,16.2-11.7,25l29.7,72.6c2.5,5.8,6.5,9,11.7,9
			c5.2,0,9.2-3.1,11.2-9l31.7-92.3c0.7-2,1.6-3.6,1.6-5.4c0-6.3-4.9-11.2-11.2-11.2C157.5,116.6,152.8,119.1,151.7,123.1
			 M206.4,143.5v-14.8c0-6.7-5.4-12.1-11.9-12.1s-11.9,5.4-11.9,12.1v94.6c0,6.5,5.4,11.9,11.9,11.9s11.9-5.4,11.9-11.9v-57.7
			c1.6-11.9,14.4-27.2,34.1-27.2c10.1,0,15.3-4.5,15.3-11.2c0-6.1-4.3-11-12.1-11C221.6,116.1,207.5,135.7,206.4,143.5 M279.1,175.7
			c0-26.5,18.4-39.3,34.8-39.3c15.3,0,34.1,11.2,34.1,39.3s-18.9,39.5-34.1,39.5C297.5,215.2,279.1,202.4,279.1,175.7 M255.3,175.7
			c0,40.7,29.9,60,54.8,60c21.3,0,35.3-14.1,36.9-24.3v12.1c0,6.5,5.4,11.9,11.9,11.9S371,230,371,223.5v-95
			c0-6.5-5.6-11.9-12.1-11.9s-11.9,5.4-11.9,11.9v9c-5.8-13-20.2-21.6-36.9-21.6C285.4,115.9,255.3,135.7,255.3,175.7 M443.6,136.6
			c15,0,31.2,9.4,33.2,30.8h-67C411.9,146,428.8,136.6,443.6,136.6 M385.4,175.9c0,40.7,31.2,59.3,60.4,59.3c14.1,0,26.5-4,35-11
			c4.9-4,6.1-7.2,6.1-10.1c0-4.9-3.1-8.5-8.3-8.5c-3.1,0-5.6,1.6-9.4,3.6c-7,4.3-13.3,6.5-22.5,6.5c-18,0-34.4-10.3-36.9-31.2
			l75.3,0.2c9.7,0,14.8-3.6,14.8-12.8c0-35.7-30.8-55.9-56.4-55.9S385.4,135.5,385.4,175.9 M115.3,39.5
			C115.3,39.5,115.3,39.5,115.3,39.5c-0.1,0.1-0.2,0.2-0.2,0.3c-0.2,0.2-0.4,0.5-0.6,0.7c-0.2,0.2-0.3,0.4-0.4,0.6
			c-0.1,0.1-0.2,0.3-0.3,0.4c0,0.1-0.1,0.1-0.1,0.2c-5.3,7.8-3.1,14.3-8.3,22.8c-0.4,0.7-0.8,1.2-0.9,1.4
			c-24.3,33.5-43,72.6-55.9,111.7c-5,17.9-15.5,57.2-16.6,78.9h-0.2c-2.4,28-0.2,56.7,12.6,76.7c9.2,14.2,25,20.4,41.3,16.4
			c38.2-10.1,73.1-58.2,96.9-102.6c-2.8-0.8-5.3-2.1-7.6-3.7c-12,21.5-26.1,41.7-42.8,59.7c-25.8,27.9-72.1,58.8-81.5,0.4
			c-5.3-33.2,4.1-82.8,22.1-131.6c6.6-20.8,18.6-44.6,26.4-59.1c6.4-12.1,13.2-23.7,20.4-34.4c0.2-0.2,0.6-0.7,1.2-1.3
			c5.8-5.9,11.7-5.7,18.6-11.4c0.8-0.6,1.5-1.2,2.1-1.9c0.1-0.1,0.2-0.2,0.3-0.3c0,0,0,0,0,0c2.9-3.2,4.6-7.3,4.6-11.9
			c0-9.8-8-17.8-17.8-17.8C123.3,33.5,118.5,35.8,115.3,39.5 M192.3,0c-18.2,0.1-35.7,11.2-50.2,23.7c5.4,2.6,9.9,6.7,12.9,11.9
			c7.2-6.6,14.6-12,21.9-16.1c37.6-19.3,47.1,23.7,47.5,52.1c0.1,11.6-0.6,23.1-2.1,34.5c3.2-1.1,6.6-1.9,10.1-2.3
			c3-20.2,3.9-40.3,1.1-58.9c-3-19.3-12.6-40.5-33.9-44.4C197.3,0.2,195,0,192.7,0L192.3,0L192.3,0z"/>
	</defs>
	<use xlink:href="#SVGID_1_"  style="overflow:visible;fill:#FFFFFF;"/>
	<clipPath id="SVGID_00000044135581266196625800000009171378437091167662_">
		<use xlink:href="#SVGID_1_"  style="overflow:visible;"/>
	</clipPath>
	<g style="clip-path:url(#SVGID_00000044135581266196625800000009171378437091167662_);">
		<rect class="st0" width="500" height="361.6"/>
	</g>
</g>
</svg>
