<svg width="819" height="819" viewBox="0 0 819 819" fill="none" xmlns="http://www.w3.org/2000/svg">
<path opacity="0.3" d="M409.5 766C606.39 766 766 606.39 766 409.5C766 212.61 606.39 53 409.5 53C212.61 53 53 212.61 53 409.5C53 606.39 212.61 766 409.5 766Z" stroke="#8AD1D0" stroke-opacity="0.2" stroke-width="2"/>
<path opacity="0.3" d="M409.5 818C635.108 818 818 635.108 818 409.5C818 183.892 635.108 1 409.5 1C183.892 1 1 183.892 1 409.5C1 635.108 183.892 818 409.5 818Z" stroke="#8AD1D0" stroke-opacity="0.16" stroke-width="2"/>
<path d="M409.5 574.637C500.703 574.637 574.637 500.703 574.637 409.5C574.637 318.297 500.703 244.363 409.5 244.363C318.297 244.363 244.363 318.297 244.363 409.5C244.363 500.703 318.297 574.637 409.5 574.637Z" stroke="#8AD1D0" stroke-opacity="0.2" stroke-width="2"/>
<path d="M410 523C472.408 523 523 472.408 523 410C523 347.592 472.408 297 410 297C347.592 297 297 347.592 297 410C297 472.408 347.592 523 410 523Z" stroke="#8AD1D0" stroke-opacity="0.2" stroke-width="2"/>
<path opacity="0.6" d="M409.5 673.798C555.468 673.798 673.798 555.468 673.798 409.5C673.798 263.532 555.468 145.202 409.5 145.202C263.532 145.202 145.202 263.532 145.202 409.5C145.202 555.468 263.532 673.798 409.5 673.798Z" stroke="#8AD1D0" stroke-opacity="0.2" stroke-width="2"/>
<path opacity="0.5" d="M409.5 720.769C581.409 720.769 720.769 581.409 720.769 409.5C720.769 237.591 581.409 98.231 409.5 98.231C237.591 98.231 98.231 237.591 98.231 409.5C98.231 581.409 237.591 720.769 409.5 720.769Z" stroke="#8AD1D0" stroke-opacity="0.2" stroke-width="2"/>
<path opacity="0.8" d="M409.5 626.827C529.526 626.827 626.827 529.526 626.827 409.5C626.827 289.474 529.526 192.173 409.5 192.173C289.474 192.173 192.173 289.474 192.173 409.5C192.173 529.526 289.474 626.827 409.5 626.827Z" stroke="#8AD1D0" stroke-opacity="0.2" stroke-width="2"/>
</svg>
