<svg xmlns="http://www.w3.org/2000/svg" xmlns:xlink="http://www.w3.org/1999/xlink" width="33.012" height="33" viewBox="0 0 33.012 33" style="fill:#fff;">
  <defs>
    <clipPath id="clip-path">
      <rect id="Rectangle_23" data-name="Rectangle 23" width="33.012" height="33" fill="none"/>
    </clipPath>
  </defs>
  <g id="Group_8" data-name="Group 8" transform="translate(0 0)">
    <g id="Group_7" data-name="Group 7" transform="translate(0 0)" clip-path="url(#clip-path)">
      <path id="Path_16" data-name="Path 16" d="M15.468,0h2.063a1.8,1.8,0,0,0,.248.052A16.49,16.49,0,0,1,32.854,18.7a16.15,16.15,0,0,1-6.419,10.955,16.032,16.032,0,0,1-12.162,3.189,15.921,15.921,0,0,1-8.7-4A16.213,16.213,0,0,1,.257,19.375c-.11-.611-.172-1.23-.257-1.844V15.468c.027-.212.055-.422.078-.634A16.243,16.243,0,0,1,4.113,5.614,16.166,16.166,0,0,1,13.69.248c.589-.1,1.186-.166,1.779-.248M6.9,26.259c.139-.028.223-.042.3-.063,1.545-.4,3.089-.813,4.637-1.2a.855.855,0,0,1,.543.05,9.88,9.88,0,1,0-4.233-4.148.707.707,0,0,1,.06.575c-.439,1.578-.867,3.161-1.311,4.789" transform="translate(0 0)"/>
      <path id="Path_17" data-name="Path 17" d="M10.714,25.275c.253-.927.481-1.8.733-2.66a.772.772,0,0,0-.1-.688,8.131,8.131,0,1,1,2.726,2.7.8.8,0,0,0-.531-.074c-.926.221-1.844.47-2.828.726m10.157-2.957a3.6,3.6,0,0,0,.465-.032c1.133-.228,2-.882,1.962-2.118a.459.459,0,0,0-.163-.345c-.686-.35-1.385-.679-2.083-1a.379.379,0,0,0-.5.152c-.226.3-.474.582-.7.879a.443.443,0,0,1-.592.144,6.776,6.776,0,0,1-3.311-2.839.45.45,0,0,1,.048-.605,5.089,5.089,0,0,0,.551-.75.635.635,0,0,0,.056-.475c-.245-.652-.517-1.293-.8-1.931a.707.707,0,0,0-.285-.328,1.466,1.466,0,0,0-1.332.22,2.783,2.783,0,0,0-.828,2.7,5.891,5.891,0,0,0,1.225,2.345,10.025,10.025,0,0,0,3.852,3.283,6.137,6.137,0,0,0,2.438.7" transform="translate(-1.451 -1.345)"/>
    </g>
  </g>
</svg>
