<svg id="Component_13_1" data-name="Component 13 – 1" xmlns="http://www.w3.org/2000/svg" width="291.919" height="50.465" viewBox="0 0 291.919 50.465">
  <path id="Path_27" data-name="Path 27" d="M57.241.785A15.378,15.378,0,0,0,53.472.318C44.011.279,34.56.3,25.107.3h-.573q-.874,4.121-1.745,8.229H48.9s-.542,2.492-.74,3.389c-.045.212-.174.68-.174.68H21.927q-1.79,8.4-3.57,16.814a1.33,1.33,0,0,0,.2.045q5.481,0,10.964.007c.279,0,.346-.119.4-.37.251-1.229.523-2.454.778-3.685q.6-2.817,1.215-5.668a4.569,4.569,0,0,1,.461-.031c1.224,0,2.456.007,3.678,0H38.47s.862,1.382,1.165,1.881q2.309,3.727,4.6,7.466a.715.715,0,0,0,.695.408c3.95-.014,7.907-.007,11.855-.007.143,0,.3-.014.566-.029a4.135,4.135,0,0,0-.286-.742c-1.811-2.862-3.64-5.714-5.458-8.568-.091-.136-.181-.286-.3-.475.461-.084.854-.136,1.239-.212a7.792,7.792,0,0,0,6.351-5.315,30.913,30.913,0,0,0,.921-3.7,41.3,41.3,0,0,0,.852-4.766A4.266,4.266,0,0,0,57.241.785" transform="translate(25.455 0.409)" fill="#f26722"/>
  <path id="Path_28" data-name="Path 28" d="M125.731.8a10.9,10.9,0,0,0-3.714-.5q-10.862,0-21.724,0c-.792,0-1.585.031-2.37.091a7.5,7.5,0,0,0-7.325,6.4c-.129.618-.258,1.232-.391,1.85h12.683q6.172,0,12.339.007a1.16,1.16,0,0,1,.158.007,2.037,2.037,0,0,1,.384.017.538.538,0,0,1,.53.685c-.317,1.535-.649,3.067-.974,4.6H89.082L86.568,25.828c-.251,1.193-.5,2.387-.749,3.6H97.311c.589-2.792,1.172-5.563,1.752-8.351h14.731c-.587,2.809-1.162,5.58-1.742,8.365h11.482c.038-.165.076-.325.115-.482q1.869-8.821,3.721-17.638c.425-2,.862-4,1.165-6.026a3.907,3.907,0,0,0-2.8-4.5" transform="translate(119.003 0.411)" fill="#f26722"/>
  <path id="Path_29" data-name="Path 29" d="M53.021,29.463c.587-2.809,1.165-5.566,1.757-8.387h.635q11.234,0,22.466,0c.215,0,.43-.01.644-.019a.806.806,0,0,0,.823-.654c.15-.625.277-1.258.4-1.888a.461.461,0,0,0-.432-.6,4.417,4.417,0,0,0-.642-.038Q70.838,17.868,63,17.859a9.127,9.127,0,0,1-3.58-.675A4.268,4.268,0,0,1,56.673,12.6a26.022,26.022,0,0,1,1.516-7.048,7.608,7.608,0,0,1,6.1-4.931A16.994,16.994,0,0,1,67.439.312C76.083.288,84.73.3,93.375.3h.453c-.6,2.792-1.191,5.542-1.795,8.356H91.4q-10.736,0-21.473,0a1.747,1.747,0,0,0-.73.062,2.137,2.137,0,0,0-.652.585c-.1.112-.086.313-.119.475-.189.909-.086,1.033.862,1.033,4.993,0,9.986-.017,14.976.014a16.08,16.08,0,0,1,3.246.32c2.9.623,4.334,2.594,3.893,5.59A50.3,50.3,0,0,1,89.9,23.6c-.988,3.356-3.444,5.131-6.835,5.652a19.807,19.807,0,0,1-3.01.205q-13.192.025-26.382.01Z" transform="translate(73.522 0.411)" fill="#f26722"/>
  <path id="Path_30" data-name="Path 30" d="M110.823.309c-.573,2.687-1.143,5.332-1.7,7.981-.074.358-.274.372-.563.372q-4.214-.011-8.427,0c-1.422,0-2.845.01-4.265-.007-.346,0-.477.1-.549.446Q93.223,19.1,91.1,29.1c-.021.1-.048.189-.079.31H79.533c1.458-6.9,2.912-13.788,4.382-20.752H70.3C70.91,5.832,71.5,3.08,72.092.309Z" transform="translate(97.488 0.428)" fill="#f26722"/>
  <path id="Path_31" data-name="Path 31" d="M105.476,3.794l-.007.014a1.178,1.178,0,0,0-.16-.007q-6.161-.011-12.337-.007Z" transform="translate(128.922 5.26)" fill="#ee4e14"/>
  <path id="Path_32" data-name="Path 32" d="M39.747.307H51.239c-.184.888-.358,1.754-.542,2.616q-.755,3.562-1.516,7.119c-.105.494.06.716.566.752.212.017.43.007.644.007,4.165,0,8.33-.012,12.5.017.544,0,.716-.162.821-.675C64.354,6.99,65.034,3.844,65.7.7c.026-.129.064-.253.1-.391H77.275c-.232,1.115-.456,2.205-.69,3.3q-2.066,9.684-4.131,19.37A7.436,7.436,0,0,1,69,28.22a9.572,9.572,0,0,1-4.85,1.212c-5.406.029-10.812.017-16.217.019H37.038c.451-2.16.9-4.275,1.339-6.389.107-.518.248-1.029.317-1.551.05-.358.193-.461.544-.456,1.422.019,2.845.007,4.265.007H60.117c1.143,0,1.282-.117,1.511-1.239.126-.63.258-1.258.4-1.962h-.606c-6.15,0-12.3.017-18.449-.031a10.338,10.338,0,0,1-3.007-.5,3.757,3.757,0,0,1-2.788-4.165,31.448,31.448,0,0,1,.652-3.8c.618-3.007,1.27-6.007,1.917-9.057" transform="translate(51.359 0.422)" fill="#f26722"/>
  <path id="Path_33" data-name="Path 33" d="M14.7,21.382l23.583,0-1.757,8.372H8.96a11.02,11.02,0,0,1-3.668-.487A3.943,3.943,0,0,1,2.437,24.7c.286-1.94.718-3.859,1.119-5.781.246-1.16.482-2.241.714-3.3L21.2.6C30.507.594,42.72.6,42.72.6L40.942,8.974,28.762,8.957Z" transform="translate(3.3 0.828)" fill="#f26722"/>
  <path id="Path_34" data-name="Path 34" d="M13.594,3.107,6.229,8.226a1.477,1.477,0,0,0-.566.866l-.969,4.263a.074.074,0,0,0,.122.072L19.84.128A.074.074,0,0,0,19.776,0L.059,3.72a.073.073,0,0,0-.017.138L4.007,5.706a1.478,1.478,0,0,0,1.031.084Z" transform="translate(0 0)" fill="#0c3251"/>
  <path id="Path_35" data-name="Path 35" d="M115.97,20.058c1.353-6.215,3.828-18.681,4.057-19.74H108.877c-.21,1.012-2.74,14.4-4.143,21.3Z" transform="translate(145.232 0.44)" fill="#f26722"/>
  <path id="Path_36" data-name="Path 36" d="M146.954,8.836c-.6-.477-2.826-.8-4.738-.716s-7.007.477-9.795.757-3.184.914-3.184.914L127.82,11.1l-1.057.945-1.229.177L116.1,13.414s-11.506,1.554-11.626,1.673a2.51,2.51,0,0,0,.079,1.513,31.039,31.039,0,0,0,2.907,1.551s5.119.014,11.361.024c8.974.017,20.265.024,22-.024a18.406,18.406,0,0,1,2.628-5.014,26.552,26.552,0,0,1,3.224-3.346s.876-.477.279-.955" transform="translate(144.757 11.242)" fill="#f26722"/>
  <path id="Path_37" data-name="Path 37" d="M41.9,17.2l-1.621,9.225H38.458L40.079,17.2Z" transform="translate(53.328 23.854)" fill="#0c3251"/>
  <path id="Path_38" data-name="Path 38" d="M42.655,17.2h1.37l2.964,5.759,1-5.759h1.819l-1.621,9.225H46.819l-2.952-5.757-1.014,5.757H41.034Z" transform="translate(56.9 23.854)" fill="#0c3251"/>
  <path id="Path_39" data-name="Path 39" d="M52.9,18.943H50.408L49.09,26.428H47.272l1.317-7.485H46.112l.3-1.74H53.2Z" transform="translate(63.942 23.855)" fill="#0c3251"/>
  <path id="Path_40" data-name="Path 40" d="M53.059,18.943l-.353,1.976h3.5l-.315,1.7h-3.48l-.37,2.069h3.888l-.3,1.74h-5.7L51.546,17.2h5.64l-.305,1.74Z" transform="translate(69.23 23.855)" fill="#0c3251"/>
  <path id="Path_41" data-name="Path 41" d="M59.574,22.987l1.4,3.439H59.128l-1.279-3.2H56.333l-.566,3.2H53.949L55.57,17.2h3.6a2.675,2.675,0,0,1,2.623,3.189,3.361,3.361,0,0,1-2.215,2.594M58.863,18.9h-1.78l-.473,2.728h1.871a1.592,1.592,0,0,0,1.5-1.37A1.089,1.089,0,0,0,58.863,18.9" transform="translate(74.809 23.856)" fill="#0c3251"/>
  <path id="Path_42" data-name="Path 42" d="M60.057,17.2h1.37l2.964,5.759,1-5.759H67.21L65.59,26.428H64.222L61.27,20.671l-1.014,5.757H58.437Z" transform="translate(81.032 23.854)" fill="#0c3251"/>
  <path id="Path_43" data-name="Path 43" d="M69.438,24.766h-3.69l-.857,1.661H62.9L67.765,17.2h2.253l1.621,9.225H69.674Zm-.251-1.7-.554-3.85-2,3.85Z" transform="translate(87.226 23.854)" fill="#0c3251"/>
  <path id="Path_44" data-name="Path 44" d="M74.8,18.943H72.314L71,26.428H69.178L70.5,18.943H68.018l.3-1.74h6.788Z" transform="translate(94.319 23.855)" fill="#0c3251"/>
  <path id="Path_45" data-name="Path 45" d="M75.272,17.2l-1.621,9.225H71.833L73.453,17.2Z" transform="translate(99.608 23.854)" fill="#0c3251"/>
  <path id="Path_46" data-name="Path 46" d="M74.624,21.79a5.552,5.552,0,0,1,5.563-4.664,4.034,4.034,0,0,1,3.976,4.94,5.535,5.535,0,0,1-5.559,4.652,4,4,0,0,1-3.981-4.928m7.735.146a2.411,2.411,0,0,0-2.451-3.043,3.585,3.585,0,0,0-3.477,3.029,2.349,2.349,0,0,0,2.384,3.019,3.616,3.616,0,0,0,3.544-3" transform="translate(103.369 23.747)" fill="#0c3251"/>
  <path id="Path_47" data-name="Path 47" d="M81.5,17.2h1.37l2.964,5.759,1-5.759h1.819l-1.621,9.225H85.669l-2.952-5.757L81.7,26.428H79.884Z" transform="translate(110.773 23.854)" fill="#0c3251"/>
  <path id="Path_48" data-name="Path 48" d="M90.885,24.766h-3.69l-.857,1.661H84.35L89.212,17.2h2.253l1.621,9.225H91.121Zm-.251-1.7-.554-3.85-2,3.85Z" transform="translate(116.966 23.854)" fill="#0c3251"/>
  <path id="Path_49" data-name="Path 49" d="M95.124,24.688l-.306,1.74H89.484l.3-1.74L91.1,17.2h1.819l-1.317,7.485Z" transform="translate(124.085 23.855)" fill="#0c3251"/>
  <path id="Path_50" data-name="Path 50" d="M95.937,21.79a5.543,5.543,0,0,1,5.454-4.664,3.808,3.808,0,0,1,3.69,2.186l-1.661.871a2.235,2.235,0,0,0-2.2-1.291,3.513,3.513,0,0,0-3.477,3.029A2.324,2.324,0,0,0,100.1,24.94a3.166,3.166,0,0,0,2.675-1.344l1.489.962a5.352,5.352,0,0,1-4.282,2.16,3.985,3.985,0,0,1-4.045-4.928" transform="translate(132.928 23.747)" fill="#0c3251"/>
  <path id="Path_51" data-name="Path 51" d="M106.973,24.766h-3.69l-.857,1.661h-1.988L105.3,17.2h2.253l1.621,9.225h-1.964Zm-.251-1.7-.554-3.85-2,3.85Z" transform="translate(139.275 23.854)" fill="#0c3251"/>
  <path id="Path_52" data-name="Path 52" d="M111.2,22.987l1.4,3.439h-1.845l-1.277-3.2h-1.516l-.566,3.2h-1.819l1.621-9.222h3.6a2.674,2.674,0,0,1,2.623,3.189,3.361,3.361,0,0,1-2.215,2.594m-.711-4.084H108.7l-.473,2.728H110.1a1.592,1.592,0,0,0,1.5-1.37,1.089,1.089,0,0,0-1.122-1.358" transform="translate(146.392 23.856)" fill="#0c3251"/>
  <path id="Path_53" data-name="Path 53" d="M119.636,22.291a5.159,5.159,0,0,1-5.282,4.427,4.018,4.018,0,0,1-4.127-4.94,5.54,5.54,0,0,1,5.47-4.652,4.016,4.016,0,0,1,3.847,2.239l-1.661.871a2.453,2.453,0,0,0-2.358-1.344,3.5,3.5,0,0,0-3.492,3.017,2.358,2.358,0,0,0,2.489,3.031,3.026,3.026,0,0,0,3.031-1.754h-2.7l.277-1.606h4.628Z" transform="translate(152.746 23.747)" fill="#0c3251"/>
  <path id="Path_54" data-name="Path 54" d="M115.669,21.79a5.552,5.552,0,0,1,5.563-4.664,4.034,4.034,0,0,1,3.976,4.94,5.535,5.535,0,0,1-5.559,4.652,4,4,0,0,1-3.981-4.928m7.735.146a2.411,2.411,0,0,0-2.451-3.043,3.584,3.584,0,0,0-3.477,3.029,2.349,2.349,0,0,0,2.384,3.019,3.616,3.616,0,0,0,3.544-3" transform="translate(160.285 23.747)" fill="#0c3251"/>
  <path id="Path_55" data-name="Path 55" d="M80.63,20.771H3.106a.726.726,0,0,1,0-1.451H76.439l-.967-.764a.727.727,0,0,1,.9-1.143Z" transform="translate(3.3 23.933)" fill="#0c3251"/>
  <path id="Path_56" data-name="Path 56" d="M7.613,23.053a.717.717,0,0,1-.449-.155L2.909,19.542H80.431a.726.726,0,1,1,0,1.451H7.1l.967.764a.725.725,0,0,1-.449,1.3" transform="translate(4.033 27.098)" fill="#0c3251"/>
</svg>
