<?xml version="1.0" encoding="UTF-8"?><svg id="b" xmlns="http://www.w3.org/2000/svg" viewBox="0 0 75.15 75.16"><defs><style>.d{fill:#1e1e1e;}</style></defs><g id="c"><path class="d" d="m74.78,37.21l-23.89-1.1c.01-.08.03-.14.04-.23.01-.1.02-.21.03-.32,0-.14.01-.3.01-.46,0-1.91-.49-3.79-1.47-5.63-.19-.36-.4-.69-.63-1.02l2.94-3.35,8.89-10.13c.13-.14.13-.37-.01-.5-.14-.14-.36-.14-.5-.01l-10.02,8.8-3.36,2.95c-.1-.09-.2-.18-.31-.27-.44-.35-.92-.67-1.42-.97-1.66-.98-3.61-1.55-5.83-1.7-.03,0-.05,0-.08,0-.04,0-.09,0-.13,0L38,.43c-.01-.24-.2-.43-.42-.43s-.41.19-.43.43l-1.04,22.89s-.09.01-.13.01c-.02,0-.04,0-.07,0-1.32.15-2.55.45-3.71.9-1.33.52-2.5,1.21-3.51,2.09-.03.03-.06.06-.09.09l-3.61-3.17-10.02-8.8c-.15-.13-.37-.13-.5.01-.14.14-.14.36-.01.5l8.89,10.13,3.24,3.69c-.59.9-1.09,1.88-1.47,2.97-.42,1.19-.7,2.46-.83,3.79-.01.11-.02.22-.03.33,0,.06,0,.11,0,.17l-1.2.06h-.03S.35,37.21.35,37.21c-.2,0-.35.17-.35.37s.15.36.35.37l22.64,1.1h.02s1.22.06,1.22.06c0,.05,0,.11.01.16.22,2.77,1,5.13,2.33,7.09l-3.24,3.69-8.89,10.13c-.13.14-.13.37.01.5.14.14.36.14.5.01l10.02-8.8,3.65-3.2c1.92,1.68,4.35,2.71,7.3,3.07.04,0,.08,0,.12.01l1.1,22.94c.01.24.2.43.42.43s.41-.19.42-.43l1.09-22.8s.08,0,.12,0c1.69-.05,3.21-.31,4.55-.76,1.32-.44,2.44-.99,3.37-1.64.06-.04.11-.08.17-.12l2.87,2.52,10.02,8.8c.15.13.37.13.5-.01.14-.14.14-.36.01-.5l-8.89-10.13-2.39-2.72c.14-.19.27-.38.39-.58.5-.85.75-1.6.75-2.24,0-.72-.22-1.28-.67-1.68-.44-.4-1.03-.6-1.75-.6-.67,0-1.19.16-1.55.47-.37.35-.71.67-1.02.96-.43.39-.8.72-1.12,1.01-.46.41-.97.79-1.51,1.16-.1.06-.19.13-.3.19-.65.42-1.33.73-2.03.93-.37.1-.76.18-1.18.23-.04,0-.08,0-.12,0l.38-7.87h5.47c.99,0,1.86-.08,2.61-.23l3.04-.06h.02s23.94-1.1,23.94-1.1c.21-.01.37-.17.37-.37s-.16-.36-.37-.37Zm-43.39-2c.04-.44.1-.85.18-1.24.3-1.53.83-2.77,1.59-3.7.08-.11.17-.21.26-.31.64-.69,1.39-1.19,2.23-1.49.03,0,.05-.02.09-.03.04-.01.09-.03.13-.04.08-.03.16-.05.25-.07.51-.13,1.05-.2,1.63-.2.44,0,.87.03,1.27.1.08.01.16.03.24.04.04.01.09.02.13.03.03,0,.06.01.09.02,1.01.25,1.87.74,2.6,1.47.04.04.08.08.12.12.76.81,1.31,1.9,1.63,3.26.16.65.26,1.37.32,2.15h-4.27l.02-.4c0-1.37-1.04-2.49-2.33-2.49s-2.33,1.11-2.33,2.49l.02.4h-3.89s0-.08.01-.12Zm4.42,11.59s-.08-.03-.12-.04c-.29-.12-.57-.26-.84-.43-.69-.4-1.28-.94-1.79-1.61-.27-.35-.5-.73-.72-1.15-.4-.78-.67-1.64-.83-2.57-.07-.45-.11-.9-.13-1.38,0-.1,0-.19,0-.29h4.08l.36,7.47Z"/></g></svg>