<?xml version="1.0" encoding="UTF-8"?><svg id="b" xmlns="http://www.w3.org/2000/svg" viewBox="0 0 382.31 98.88"><defs><style>.d{fill:#231f20;}</style></defs><g id="c"><g><path class="d" d="m9.85,54.99c.42-.84.96-1.88,1.61-3.12.66-1.24,1.34-2.49,2.05-3.75.71-1.26,1.41-2.44,2.1-3.56.68-1.12,1.26-1.97,1.74-2.56.81-.98,1.65-1.68,2.51-2.1.87-.42,1.66-.63,2.39-.63s1.35.15,1.86.46c.52.31.94.72,1.28,1.24.34.52.59,1.12.75,1.8.17.68.25,1.42.25,2.2,0,.45-.02,1.03-.06,1.76-.04.73-.08,1.51-.13,2.35s-.08,1.71-.13,2.6c-.04.89-.08,1.73-.1,2.51.42-.84.89-1.77,1.42-2.79.53-1.02,1.07-2.03,1.61-3.04s1.07-1.95,1.57-2.83c.5-.88.96-1.6,1.38-2.16,1.2-1.65,2.33-2.75,3.37-3.31s1.98-.84,2.79-.84c.95,0,1.73.17,2.35.52.61.35,1.1.8,1.45,1.34.35.54.59,1.15.73,1.82.14.67.21,1.31.21,1.93,0,.95-.07,1.94-.21,2.98-.14,1.03-.21,2.26-.21,3.69,0,.59.03,1.17.08,1.76.06.59.17,1.1.36,1.55.18.45.47.81.86,1.09.39.28.92.42,1.59.42.73,0,1.44-.19,2.14-.57.7-.38,1.37-.87,2.01-1.49.64-.61,1.25-1.31,1.82-2.1.57-.78,1.1-1.56,1.57-2.35.47-.78.89-1.53,1.26-2.24.36-.71.66-1.32.88-1.82.14-.31.34-.54.59-.71s.53-.25.84-.25c.47,0,.86.17,1.15.52s.44.72.44,1.11c0,.2-.04.39-.13.59-.11.22-.34.69-.67,1.4-.34.71-.78,1.52-1.34,2.43-.56.91-1.21,1.87-1.95,2.87-.74,1.01-1.56,1.93-2.45,2.79-.89.85-1.86,1.55-2.89,2.1-1.03.54-2.12.82-3.27.82-1.23,0-2.23-.22-3-.65-.77-.43-1.38-1.01-1.84-1.74-.46-.73-.78-1.56-.94-2.51-.17-.95-.25-1.94-.25-2.98,0-1.37.07-2.63.21-3.79.14-1.16.21-2.06.21-2.7,0-.7-.06-1.23-.19-1.59-.13-.36-.28-.62-.46-.78-.18-.15-.36-.24-.52-.25-.17-.01-.29-.02-.38-.02-.67,0-1.38.37-2.12,1.11-.74.74-1.5,1.73-2.28,2.96s-1.59,2.63-2.41,4.19c-.82,1.57-1.66,3.16-2.49,4.78-.48.89-.87,1.63-1.19,2.22-.32.59-.63,1.05-.92,1.38-.29.34-.58.57-.86.71-.28.14-.59.21-.92.21-.73,0-1.28-.25-1.66-.75-.38-.5-.57-1.16-.57-1.97,0-.42.01-.98.04-1.68.03-.7.06-1.47.08-2.3.03-.84.07-1.7.13-2.6.06-.89.1-1.75.13-2.58.03-.82.06-1.56.08-2.2.03-.64.04-1.13.04-1.47,0-.73-.13-1.25-.38-1.57s-.54-.48-.88-.48c-.31,0-.65.11-1.03.34-.38.22-.82.66-1.32,1.3-.39.5-.89,1.24-1.49,2.2-.6.96-1.24,2.03-1.91,3.21-.67,1.17-1.33,2.38-1.99,3.6-.66,1.23-1.22,2.33-1.7,3.31-.59,1.17-1.17,1.98-1.76,2.41-.59.43-1.16.65-1.72.65-.81,0-1.41-.25-1.8-.73-.39-.49-.59-1.14-.59-1.95,0-.08.02-.59.06-1.51s.09-2.05.15-3.37c.06-1.33.12-2.75.19-4.25s.13-2.92.19-4.23c.03-.7,0-1.34-.08-1.93s-.2-.94-.34-1.05c-.22.06-.66.57-1.32,1.55-.66.98-1.49,2.68-2.49,5.11-.14.31-.35.54-.63.71-.28.17-.57.25-.88.25-.48,0-.85-.16-1.13-.48-.28-.32-.42-.69-.42-1.11,0-.2.04-.4.13-.63,1.26-2.99,2.46-5.19,3.6-6.6,1.15-1.41,2.26-2.12,3.35-2.12.64,0,1.18.15,1.61.44.43.29.78.67,1.03,1.13s.43.99.54,1.57c.11.59.17,1.16.17,1.72,0,2.49-.06,4.76-.19,6.83-.13,2.07-.26,4.15-.4,6.24Z"/><path class="d" d="m87.43,47.02c-.11.22-.34.69-.69,1.4-.35.71-.8,1.53-1.34,2.45-.54.92-1.18,1.89-1.91,2.89-.73,1.01-1.54,1.93-2.43,2.77-.89.84-1.86,1.53-2.89,2.08-1.03.54-2.12.82-3.27.82-1.62,0-2.98-.52-4.09-1.55-1.1-1.03-1.91-2.33-2.41-3.9-.95,1.59-2.08,2.86-3.4,3.79-1.31.94-2.63,1.4-3.94,1.4-1.03,0-1.97-.19-2.81-.57-.84-.38-1.55-.91-2.14-1.59-.59-.68-1.04-1.49-1.36-2.41-.32-.92-.48-1.93-.48-3.02,0-2.18.37-4.1,1.11-5.76.74-1.66,1.68-3.05,2.83-4.17,1.15-1.12,2.41-1.96,3.79-2.51,1.38-.56,2.72-.84,4-.84.87,0,1.66.12,2.39.36.73.24,1.35.5,1.87.78.52.28.91.54,1.19.78.28.24.43.37.46.4.31.36.46.74.46,1.13,0,.42-.15.79-.46,1.11-.31.32-.67.48-1.09.48-.45,0-.82-.15-1.13-.46-.06-.06-.18-.16-.38-.31-.2-.15-.46-.31-.8-.48-.34-.17-.73-.31-1.19-.44s-.98-.19-1.57-.19c-.87,0-1.79.2-2.77.59-.98.39-1.87,1-2.68,1.82-.81.82-1.49,1.86-2.03,3.1s-.82,2.72-.82,4.42c0,.53.06,1.07.17,1.61.11.54.31,1.04.59,1.49.28.45.66.81,1.13,1.09.47.28,1.06.42,1.76.42.5,0,1.08-.17,1.74-.5.66-.33,1.28-.85,1.89-1.55.6-.7,1.15-1.58,1.63-2.64.49-1.06.83-2.32,1.03-3.77.06-.39.24-.72.54-.99.31-.26.67-.4,1.09-.4.39,0,.73.15,1.03.46.29.31.45.66.48,1.05.03.53.08,1.28.17,2.24s.27,1.92.57,2.87.73,1.77,1.32,2.47c.59.7,1.4,1.05,2.43,1.05.67,0,1.33-.18,1.99-.54.66-.36,1.3-.84,1.93-1.45.63-.6,1.23-1.28,1.8-2.05.57-.77,1.1-1.54,1.57-2.33.48-.78.89-1.54,1.26-2.26.36-.73.67-1.36.92-1.89.14-.31.34-.54.61-.71.27-.17.55-.25.86-.25.47,0,.86.17,1.15.52s.44.72.44,1.11c0,.2-.04.39-.13.59Z"/><path class="d" d="m95.1,53.56c.47,1.06,1.26,1.91,2.35,2.54,1.09.63,2.32.94,3.69.94.42,0,1.1-.06,2.05-.19.95-.13,2.05-.54,3.29-1.26,1.24-.71,2.56-1.84,3.96-3.37,1.4-1.54,2.75-3.7,4.07-6.5.14-.31.33-.54.59-.69.25-.15.53-.23.84-.23.47,0,.86.17,1.15.5.29.34.44.7.44,1.09,0,.17-.06.39-.17.67-.98,2.04-2.07,3.86-3.27,5.47-1.2,1.61-2.5,2.98-3.9,4.11-1.4,1.13-2.86,2-4.38,2.6-1.52.6-3.08.9-4.67.9-1.26,0-2.44-.2-3.54-.59-1.1-.39-2.05-.91-2.85-1.57-.8-.66-1.42-1.4-1.89-2.22-.46-.82-.69-1.67-.69-2.54,0-.11.01-.27.04-.46s.1-.41.23-.65c.13-.24.31-.46.54-.67.24-.21.57-.38.99-.52,1.15-.33,2.2-.75,3.16-1.24.96-.49,1.79-1.04,2.49-1.66.7-.61,1.24-1.29,1.63-2.03.39-.74.59-1.54.59-2.41,0-.75-.25-1.37-.75-1.84-.5-.47-1.12-.71-1.84-.71s-1.5.26-2.22.78c-.73.52-1.43,1.2-2.12,2.05-.69.85-1.33,1.83-1.95,2.93-.62,1.1-1.18,2.26-1.7,3.46-.52,1.2-.97,2.4-1.36,3.58-.39,1.19-.71,2.28-.96,3.29-.08.31-.17.64-.27,1.01-.1.36-.24.71-.44,1.03-.2.32-.43.59-.71.8-.28.21-.64.31-1.09.31-.42,0-.82-.17-1.22-.52-.39-.35-.59-.94-.59-1.78,0-.17,0-.81.02-1.93.01-1.12.03-2.58.06-4.38.03-1.8.06-3.87.1-6.2.04-2.33.08-4.81.1-7.42.03-2.61.07-5.3.13-8.07.06-2.77.1-5.46.13-8.09s.06-5.12.1-7.48.08-4.46.1-6.29c.03-1.83.05-3.32.06-4.48.01-1.16.02-1.85.02-2.07,0-.45.17-.82.5-1.11.34-.29.7-.44,1.09-.44.45,0,.82.15,1.13.44.31.29.46.68.46,1.15,0,.06,0,.61-.02,1.66-.01,1.05-.04,2.45-.06,4.21-.03,1.76-.06,3.81-.1,6.16s-.08,4.84-.13,7.48c-.04,2.64-.08,5.36-.13,8.15s-.08,5.52-.13,8.17c-.04,2.66-.08,5.18-.1,7.59-.03,2.4-.06,4.53-.08,6.37.45-1.42,1.02-2.93,1.72-4.5.7-1.58,1.52-3.04,2.47-4.38.95-1.34,2.02-2.44,3.21-3.31,1.19-.87,2.51-1.3,3.96-1.3.81,0,1.56.15,2.26.44.7.29,1.31.7,1.82,1.21.52.52.92,1.12,1.22,1.82.29.7.44,1.45.44,2.26,0,1.26-.28,2.41-.84,3.46-.56,1.05-1.3,1.98-2.22,2.81-.92.82-1.98,1.54-3.16,2.16-1.19.62-2.41,1.12-3.67,1.51Z"/><path class="d" d="m119.53,54.11c.59.81,1.34,1.46,2.26,1.95s2.05.73,3.4.73,2.61-.33,3.73-.99c1.12-.66,2.14-1.51,3.06-2.58.92-1.06,1.75-2.25,2.47-3.56.73-1.31,1.38-2.63,1.97-3.94.14-.31.34-.54.59-.69.25-.15.53-.23.84-.23.47,0,.86.17,1.15.5.29.34.44.7.44,1.09,0,.14-.01.26-.04.36-.03.1-.07.2-.13.31-1.93,4.25-4.03,7.45-6.31,9.6-2.28,2.15-4.85,3.25-7.73,3.31-1.84,0-3.44-.36-4.78-1.07-1.34-.71-2.45-1.63-3.31-2.77-.87-1.13-1.51-2.41-1.93-3.83-.42-1.43-.63-2.85-.63-4.28s.17-2.74.52-3.94c.35-1.2.85-2.25,1.51-3.14.66-.89,1.44-1.59,2.35-2.1.91-.5,1.91-.75,3-.75.64,0,1.28.13,1.91.4.63.27,1.19.64,1.7,1.13.5.49.91,1.08,1.22,1.78.31.7.46,1.5.46,2.39,0,1.15-.2,2.22-.59,3.23-.39,1.01-.93,1.94-1.61,2.81-.69.87-1.5,1.66-2.45,2.39-.95.73-1.97,1.36-3.06,1.89Zm-1.26-2.72c.87-.36,1.66-.82,2.37-1.38.71-.56,1.32-1.17,1.82-1.84.5-.67.89-1.38,1.17-2.12.28-.74.42-1.49.42-2.24,0-.84-.21-1.47-.63-1.91-.42-.43-.91-.65-1.47-.65-.75,0-1.4.21-1.93.63-.53.42-.96.96-1.3,1.63s-.58,1.42-.73,2.24c-.15.82-.23,1.64-.23,2.45,0,.5.05,1.03.15,1.59.1.56.22,1.09.36,1.59Z"/><path class="d" d="m146.1,54.99c.42-.84.96-1.88,1.61-3.12.66-1.24,1.34-2.49,2.05-3.75.71-1.26,1.41-2.44,2.1-3.56.68-1.12,1.26-1.97,1.74-2.56.81-.98,1.65-1.68,2.51-2.1.87-.42,1.66-.63,2.39-.63s1.35.15,1.86.46c.52.31.94.72,1.28,1.24.34.52.59,1.12.75,1.8.17.68.25,1.42.25,2.2,0,.45-.02,1.03-.06,1.76-.04.73-.08,1.51-.13,2.35s-.08,1.71-.13,2.6c-.04.89-.08,1.73-.1,2.51.42-.84.89-1.77,1.42-2.79.53-1.02,1.07-2.03,1.61-3.04s1.07-1.95,1.57-2.83c.5-.88.96-1.6,1.38-2.16,1.2-1.65,2.33-2.75,3.37-3.31s1.98-.84,2.79-.84c.95,0,1.73.17,2.35.52.61.35,1.1.8,1.45,1.34.35.54.59,1.15.73,1.82.14.67.21,1.31.21,1.93,0,.95-.07,1.94-.21,2.98-.14,1.03-.21,2.26-.21,3.69,0,.59.03,1.17.08,1.76.06.59.17,1.1.36,1.55.18.45.47.81.86,1.09.39.28.92.42,1.59.42.73,0,1.44-.19,2.14-.57.7-.38,1.37-.87,2.01-1.49.64-.61,1.25-1.31,1.82-2.1.57-.78,1.1-1.56,1.57-2.35.47-.78.89-1.53,1.26-2.24.36-.71.66-1.32.88-1.82.14-.31.34-.54.59-.71s.53-.25.84-.25c.47,0,.86.17,1.15.52s.44.72.44,1.11c0,.2-.04.39-.13.59-.11.22-.34.69-.67,1.4-.34.71-.78,1.52-1.34,2.43-.56.91-1.21,1.87-1.95,2.87-.74,1.01-1.56,1.93-2.45,2.79-.89.85-1.86,1.55-2.89,2.1-1.03.54-2.12.82-3.27.82-1.23,0-2.23-.22-3-.65-.77-.43-1.38-1.01-1.84-1.74-.46-.73-.78-1.56-.94-2.51-.17-.95-.25-1.94-.25-2.98,0-1.37.07-2.63.21-3.79.14-1.16.21-2.06.21-2.7,0-.7-.06-1.23-.19-1.59-.13-.36-.28-.62-.46-.78-.18-.15-.36-.24-.52-.25-.17-.01-.29-.02-.38-.02-.67,0-1.38.37-2.12,1.11-.74.74-1.5,1.73-2.28,2.96s-1.59,2.63-2.41,4.19c-.82,1.57-1.66,3.16-2.49,4.78-.48.89-.87,1.63-1.19,2.22-.32.59-.63,1.05-.92,1.38-.29.34-.58.57-.86.71-.28.14-.59.21-.92.21-.73,0-1.28-.25-1.66-.75-.38-.5-.57-1.16-.57-1.97,0-.42.01-.98.04-1.68.03-.7.06-1.47.08-2.3.03-.84.07-1.7.13-2.6.06-.89.1-1.75.13-2.58.03-.82.06-1.56.08-2.2.03-.64.04-1.13.04-1.47,0-.73-.13-1.25-.38-1.57s-.54-.48-.88-.48c-.31,0-.65.11-1.03.34-.38.22-.82.66-1.32,1.3-.39.5-.89,1.24-1.49,2.2-.6.96-1.24,2.03-1.91,3.21-.67,1.17-1.33,2.38-1.99,3.6-.66,1.23-1.22,2.33-1.7,3.31-.59,1.17-1.17,1.98-1.76,2.41-.59.43-1.16.65-1.72.65-.81,0-1.41-.25-1.8-.73-.39-.49-.59-1.14-.59-1.95,0-.08.02-.59.06-1.51s.09-2.05.15-3.37c.06-1.33.12-2.75.19-4.25s.13-2.92.19-4.23c.03-.7,0-1.34-.08-1.93s-.2-.94-.34-1.05c-.22.06-.66.57-1.32,1.55-.66.98-1.49,2.68-2.49,5.11-.14.31-.35.54-.63.71-.28.17-.57.25-.88.25-.48,0-.85-.16-1.13-.48-.28-.32-.42-.69-.42-1.11,0-.2.04-.4.13-.63,1.26-2.99,2.46-5.19,3.6-6.6,1.15-1.41,2.26-2.12,3.35-2.12.64,0,1.18.15,1.61.44.43.29.78.67,1.03,1.13s.43.99.54,1.57c.11.59.17,1.16.17,1.72,0,2.49-.06,4.76-.19,6.83-.13,2.07-.26,4.15-.4,6.24Z"/><path class="d" d="m206.88,59.3c.98-.98,1.97-1.98,2.97-3,1.01-1.02,1.98-2.09,2.93-3.21.95-1.12,1.84-2.28,2.66-3.5.82-1.21,1.56-2.51,2.2-3.88.14-.31.33-.54.59-.69.25-.15.53-.23.84-.23.47,0,.86.17,1.15.5.29.34.44.71.44,1.13,0,.22-.04.43-.13.63-.87,1.82-1.86,3.48-2.97,4.99-1.12,1.51-2.29,2.94-3.52,4.3-1.23,1.36-2.47,2.67-3.73,3.94-1.26,1.27-2.46,2.55-3.6,3.83-.11,1.93-.11,3.86,0,5.8s.17,4,.17,6.18c0,1.79-.06,3.58-.17,5.36s-.29,3.5-.54,5.13c-.25,1.63-.59,3.16-1.03,4.59s-.98,2.66-1.65,3.71c-.67,1.05-1.45,1.87-2.35,2.47s-1.94.9-3.14.9c-1.98,0-3.51-.68-4.57-2.05-1.06-1.37-1.59-3.28-1.59-5.74,0-1.34.15-2.78.44-4.32.29-1.54.71-3.12,1.24-4.76.53-1.63,1.17-3.29,1.91-4.97s1.54-3.31,2.41-4.9c.87-1.59,1.79-3.11,2.77-4.55.98-1.44,1.97-2.75,2.98-3.92.05-1.34.12-2.73.19-4.17s.15-2.77.23-4c-.73,1.29-1.63,2.32-2.7,3.1-1.08.78-2.26,1.17-3.54,1.17-2.12,0-3.79-.71-4.99-2.14-1.2-1.42-1.8-3.38-1.8-5.87,0-1.82.17-3.47.52-4.97.35-1.49.73-2.78,1.13-3.86.4-1.08.77-1.9,1.11-2.47s.5-.84.5-.82c.31-.47.74-.71,1.3-.71.47,0,.86.16,1.15.48.29.32.44.69.44,1.11,0,.31-.08.59-.25.84.03-.03-.1.2-.4.69-.29.49-.61,1.2-.96,2.12-.35.92-.67,2.03-.96,3.31-.29,1.29-.44,2.7-.44,4.23s.28,2.74.84,3.6c.56.87,1.47,1.3,2.72,1.3,1.59,0,3.03-1.18,4.32-3.54s2.38-5.79,3.27-10.29c.05-.36.22-.66.5-.9s.62-.36,1.01-.36c.45,0,.82.15,1.13.46.31.31.46.69.46,1.13,0,.08-.06.58-.17,1.49-.11.91-.24,2.12-.4,3.63s-.31,3.26-.48,5.26c-.17,2-.31,4.13-.42,6.39Zm-3.35,8.88c-1.26,1.82-2.41,3.73-3.46,5.74-1.05,2.01-1.95,4.01-2.7,5.99-.75,1.98-1.34,3.88-1.76,5.7-.42,1.82-.63,3.44-.63,4.86s.24,2.59.71,3.42,1.23,1.24,2.26,1.24c.92,0,1.74-.45,2.45-1.36.71-.91,1.31-2.2,1.8-3.88.49-1.68.86-3.71,1.11-6.1s.38-5.06.38-8.03c0-1.2-.02-2.42-.06-3.65-.04-1.23-.08-2.54-.11-3.94Z"/><path class="d" d="m245.06,47.11c-.17.31-.46.87-.86,1.68-.41.81-.95,1.73-1.63,2.75s-1.5,2.07-2.45,3.16c-.95,1.09-2.04,2.09-3.27,3s-2.61,1.66-4.13,2.24c-1.52.59-3.18.88-4.97.88-1.59,0-3-.29-4.23-.86-1.23-.57-2.28-1.38-3.14-2.43s-1.52-2.28-1.97-3.71c-.45-1.43-.67-3-.67-4.74s.24-3.25.71-4.71c.47-1.47,1.12-2.75,1.95-3.83s1.78-1.95,2.87-2.58c1.09-.63,2.25-.94,3.48-.94.92,0,1.76.16,2.51.48.75.32,1.39.75,1.91,1.28.52.53.92,1.12,1.21,1.76.29.64.44,1.29.44,1.93s-.08,1.19-.23,1.72c-.15.53-.35,1-.59,1.4-.24.41-.51.73-.82.96-.31.24-.61.36-.92.36-.48,0-.86-.15-1.15-.46-.29-.31-.44-.68-.44-1.13,0-.22.05-.42.15-.59.1-.17.21-.34.34-.52.12-.18.24-.4.33-.67.1-.26.15-.61.15-1.03,0-.59-.27-1.12-.82-1.59-.54-.47-1.24-.71-2.07-.71-.78,0-1.53.24-2.24.71-.71.48-1.33,1.11-1.87,1.91-.53.8-.96,1.73-1.28,2.81-.32,1.08-.48,2.21-.48,3.42s.14,2.24.42,3.27c.28,1.03.7,1.95,1.26,2.75.56.8,1.26,1.43,2.12,1.91.85.48,1.86.71,3.04.71,1.51,0,2.91-.27,4.19-.82,1.28-.54,2.46-1.24,3.52-2.07,1.06-.84,2-1.75,2.81-2.75s1.5-1.93,2.08-2.81c.57-.88,1.02-1.65,1.34-2.3s.51-1.07.57-1.24c.11-.28.3-.5.57-.65.26-.15.55-.23.86-.23.47,0,.86.17,1.15.5.29.34.44.71.44,1.13,0,.17-.06.39-.17.67Z"/><path class="d" d="m274.6,47.02c-.11.22-.34.69-.69,1.4-.35.71-.8,1.53-1.34,2.45-.54.92-1.18,1.89-1.91,2.89-.73,1.01-1.54,1.93-2.43,2.77-.89.84-1.86,1.53-2.89,2.08-1.03.54-2.12.82-3.27.82-1.62,0-2.98-.52-4.09-1.55-1.1-1.03-1.91-2.33-2.41-3.9-.95,1.59-2.08,2.86-3.4,3.79-1.31.94-2.63,1.4-3.94,1.4-1.03,0-1.97-.19-2.81-.57-.84-.38-1.55-.91-2.14-1.59s-1.04-1.49-1.36-2.41c-.32-.92-.48-1.93-.48-3.02,0-2.18.37-4.1,1.11-5.76.74-1.66,1.68-3.05,2.83-4.17,1.14-1.12,2.41-1.96,3.79-2.51,1.38-.56,2.72-.84,4-.84.87,0,1.66.12,2.39.36.73.24,1.35.5,1.86.78s.92.54,1.19.78.43.37.46.4c.31.36.46.74.46,1.13,0,.42-.15.79-.46,1.11-.31.32-.67.48-1.09.48-.45,0-.83-.15-1.13-.46-.06-.06-.18-.16-.38-.31-.2-.15-.46-.31-.8-.48-.33-.17-.73-.31-1.19-.44s-.98-.19-1.57-.19c-.87,0-1.79.2-2.77.59-.98.39-1.87,1-2.68,1.82s-1.49,1.86-2.03,3.1-.82,2.72-.82,4.42c0,.53.06,1.07.17,1.61.11.54.31,1.04.59,1.49.28.45.66.81,1.13,1.09.48.28,1.06.42,1.76.42.5,0,1.08-.17,1.74-.5.66-.33,1.29-.85,1.89-1.55.6-.7,1.15-1.58,1.63-2.64.49-1.06.83-2.32,1.03-3.77.06-.39.24-.72.54-.99.31-.26.67-.4,1.09-.4.39,0,.73.15,1.03.46.29.31.45.66.48,1.05.03.53.08,1.28.17,2.24s.27,1.92.57,2.87c.29.95.73,1.77,1.32,2.47s1.4,1.05,2.43,1.05c.67,0,1.33-.18,1.99-.54.66-.36,1.3-.84,1.93-1.45.63-.6,1.23-1.28,1.8-2.05.57-.77,1.1-1.54,1.57-2.33.47-.78.89-1.54,1.26-2.26.36-.73.67-1.36.92-1.89.14-.31.34-.54.61-.71s.55-.25.86-.25c.47,0,.86.17,1.15.52.29.35.44.72.44,1.11,0,.2-.04.39-.13.59Z"/><path class="d" d="m276.11,41.49c-.11.75-.25,1.46-.42,2.12-.17.66-.33,1.23-.48,1.72-.15.49-.29.89-.4,1.19-.11.31-.18.48-.21.5-.28.64-.77.96-1.47.96-.39,0-.75-.15-1.09-.44-.33-.29-.5-.66-.5-1.11,0-.17.03-.29.08-.38.06-.08.14-.25.25-.5.11-.25.25-.67.42-1.26.17-.59.38-1.49.63-2.72-.47,0-.96-.01-1.47-.04-.5-.03-.97-.13-1.4-.29-.43-.17-.79-.43-1.07-.8-.28-.36-.42-.87-.42-1.51,0-.47.13-1.12.4-1.93s.62-1.61,1.07-2.39c.45-.78.95-1.46,1.51-2.03.56-.57,1.12-.86,1.68-.86.64,0,1.17.24,1.57.71.41.48.72,1.05.94,1.74s.38,1.4.48,2.16c.1.75.15,1.41.15,1.97.47,0,.94,0,1.4-.02.46-.01.9-.02,1.32-.02,1.59,0,2.81.35,3.65,1.05.84.7,1.26,1.84,1.26,3.44,0,.64-.04,1.31-.13,2.01s-.18,1.42-.29,2.16-.21,1.47-.29,2.2-.13,1.44-.13,2.14c0,1.01.14,1.84.42,2.49.28.66.63,1.18,1.05,1.57.42.39.87.66,1.34.82.47.15.91.23,1.3.23,1.2,0,2.33-.39,3.4-1.17,1.06-.78,2.04-1.72,2.93-2.83.89-1.1,1.7-2.27,2.41-3.5.71-1.23,1.31-2.3,1.78-3.23.14-.25.34-.45.59-.59.25-.14.52-.21.8-.21.5,0,.89.16,1.17.48s.42.68.42,1.07c0,.28-.06.53-.17.75-.64,1.15-1.39,2.44-2.24,3.88-.85,1.44-1.82,2.79-2.91,4.04-1.09,1.26-2.31,2.32-3.67,3.19-1.36.87-2.84,1.3-4.46,1.3-1.01,0-1.96-.19-2.85-.57-.89-.38-1.67-.92-2.33-1.63-.66-.71-1.18-1.59-1.57-2.64s-.59-2.23-.59-3.54c0-1.4.14-2.79.42-4.17.28-1.38.42-2.7.42-3.96,0-.53-.12-.93-.36-1.19s-.76-.4-1.57-.4h-1.28c-.46,0-.96.01-1.49.04Zm-2.81-3.1c0-.2,0-.45-.02-.78-.01-.32-.04-.63-.08-.94-.04-.31-.1-.57-.17-.8-.07-.22-.15-.33-.23-.33s-.19.1-.31.31c-.13.21-.26.46-.4.75s-.27.61-.38.94c-.11.33-.2.61-.25.84h1.84Z"/><path class="d" d="m373.37,1.64h-35.46c-4.94,0-8.94,4-8.94,8.94v17.6c0,3.93.2,7.88.13,11.82-.06,3.17-.45,6.39-1.71,9.3-.68,1.57-1.62,3.03-2.81,4.26-1.13,1.16-2.87,2.65-4.57,2.65-2.6,0-4.59-3.22-5.95-9.68.75-1.81,1.59-3.98,2.51-6.49.92-2.52,1.8-5.26,2.62-8.22.82-2.96,1.52-6.06,2.08-9.3.55-3.24.83-6.49.83-9.73,0-1.51-.1-2.89-.29-4.15-.2-1.25-.5-2.33-.9-3.22-.41-.9-.93-1.6-1.57-2.1-.65-.5-1.43-.75-2.35-.75-1.03,0-1.96.35-2.77,1.07-.81.71-1.51,1.68-2.11,2.91-.6,1.23-1.11,2.65-1.53,4.27-.42,1.62-.76,3.33-1.01,5.14-.25,1.8-.43,3.64-.54,5.53-.12,1.89-.17,3.7-.17,5.43,0,3.97.19,7.56.59,10.77.39,3.21.82,6.05,1.29,8.51-.83,2.09-1.6,3.78-2.28,5.07-.68,1.28-1.31,2.28-1.89,2.97-.57.7-1.11,1.17-1.61,1.41s-.98.35-1.42.35c-.8,0-1.46-.21-1.98-.63-.19-.15-.37-.33-.52-.54-.57-.78-.86-1.87-.86-3.27,0-1.7.26-3.17.78-4.4.52-1.23,1.17-2.24,1.97-3.04.55-.55,1.14-1,1.76-1.37.28-.17.57-.32.86-.45.95-.42,1.84-.69,2.68-.8.42-.05.75-.23,1.01-.54.25-.31.37-.66.37-1.05,0-.45-.15-.82-.46-1.11-.31-.29-.67-.44-1.09-.44-1.28,0-2.58.32-3.87.96-.69.35-1.35.76-1.97,1.24-.55.44-1.08.93-1.58,1.47-1.06,1.16-1.92,2.55-2.59,4.17-.67,1.62-1.01,3.39-1.01,5.32,0,1.4.18,2.58.54,3.54.37.96.84,1.76,1.43,2.37.19.19.38.37.59.53.44.34.93.61,1.46.79.79.26,1.6.4,2.43.4,1.6,0,3.08-.65,4.45-1.93,1.37-1.29,2.72-3.35,4.06-6.2.98,2.99,2.14,5.13,3.48,6.43,1.34,1.3,2.95,1.95,4.82,1.95,3.68,0,6.79-3.69,8.61-6.54,2.25-3.51,3.08-7.37,3.23-11.48V10.59c0-3.17,2.6-5.77,5.77-5.77h35.46c3.18,0,5.76,2.59,5.76,5.76v79.36c0,3.17-2.58,5.76-5.76,5.76h-35.46c-3.18,0-5.77-2.59-5.77-5.76v-31.03c0-.88-.71-1.59-1.6-1.59-.87.01-1.57.72-1.57,1.59v31.03c0,4.94,4,8.94,8.94,8.94h35.46c4.94,0,8.94-4,8.94-8.94V10.58c0-4.94-4-8.94-8.94-8.94Zm-61.07,32.56c-.2-2.46-.3-4.92-.3-7.38s.13-5.12.4-7.65c.27-2.52.62-4.79,1.07-6.78.45-2,.97-3.62,1.57-4.85.6-1.23,1.25-1.84,1.95-1.84.42,0,.75.24,1.01.71.25.48.45,1.07.6,1.78.16.72.25,1.48.3,2.29.04.81.06,1.56.06,2.26,0,2.4-.16,4.81-.48,7.23-.32,2.42-.76,4.81-1.3,7.19-.55,2.37-1.18,4.7-1.91,6.98-.73,2.27-1.49,4.49-2.3,6.64-.26-1.93-.48-4.12-.67-6.58Z"/></g></g></svg>