<?xml version="1.0" encoding="utf-8"?>
<!-- Generator: Adobe Illustrator 27.1.1, SVG Export Plug-In . SVG Version: 6.00 Build 0)  -->
<svg version="1.1" id="b" xmlns="http://www.w3.org/2000/svg" xmlns:xlink="http://www.w3.org/1999/xlink" x="0px" y="0px"
	 viewBox="0 0 382.3 98.9" style="enable-background:new 0 0 382.3 98.9;" xml:space="preserve">
<style type="text/css">
	.st0{fill:#FFFFFF;}
</style>
<g id="c">
	<g>
		<path class="st0" d="M9.9,55c0.4-0.8,1-1.9,1.6-3.1c0.7-1.2,1.3-2.5,2.1-3.8s1.4-2.4,2.1-3.6c0.7-1.1,1.3-2,1.7-2.6
			c0.8-1,1.6-1.7,2.5-2.1c0.9-0.4,1.7-0.6,2.4-0.6s1.4,0.2,1.9,0.5c0.5,0.3,0.9,0.7,1.3,1.2s0.6,1.1,0.8,1.8
			c0.2,0.7,0.2,1.4,0.2,2.2c0,0.5,0,1-0.1,1.8c0,0.7-0.1,1.5-0.1,2.3s-0.1,1.7-0.1,2.6c0,0.9-0.1,1.7-0.1,2.5
			c0.4-0.8,0.9-1.8,1.4-2.8s1.1-2,1.6-3s1.1-2,1.6-2.8s1-1.6,1.4-2.2c1.2-1.7,2.3-2.8,3.4-3.3s2-0.8,2.8-0.8c1,0,1.7,0.2,2.3,0.5
			c0.6,0.3,1.1,0.8,1.5,1.3c0.3,0.5,0.6,1.2,0.7,1.8s0.2,1.3,0.2,1.9c0,1-0.1,1.9-0.2,3c-0.1,1-0.2,2.3-0.2,3.7c0,0.6,0,1.2,0.1,1.8
			c0.1,0.6,0.2,1.1,0.4,1.5c0.2,0.5,0.5,0.8,0.9,1.1s0.9,0.4,1.6,0.4c0.7,0,1.4-0.2,2.1-0.6s1.4-0.9,2-1.5c0.6-0.6,1.2-1.3,1.8-2.1
			c0.6-0.8,1.1-1.6,1.6-2.3c0.5-0.8,0.9-1.5,1.3-2.2c0.4-0.7,0.7-1.3,0.9-1.8c0.1-0.3,0.3-0.5,0.6-0.7s0.5-0.2,0.8-0.2
			c0.5,0,0.9,0.2,1.2,0.5S58,46,58,46.4c0,0.2,0,0.4-0.1,0.6c-0.1,0.2-0.3,0.7-0.7,1.4c-0.3,0.7-0.8,1.5-1.3,2.4s-1.2,1.9-2,2.9
			c-0.7,1-1.6,1.9-2.5,2.8c-0.9,0.8-1.9,1.5-2.9,2.1c-1,0.5-2.1,0.8-3.3,0.8c-1.2,0-2.2-0.2-3-0.7s-1.4-1-1.8-1.7
			c-0.5-0.7-0.8-1.6-0.9-2.5c-0.2-1-0.2-1.9-0.2-3c0-1.4,0.1-2.6,0.2-3.8s0.2-2.1,0.2-2.7c0-0.7-0.1-1.2-0.2-1.6
			c-0.1-0.4-0.3-0.6-0.5-0.8c-0.2-0.2-0.4-0.2-0.5-0.2c-0.2,0-0.3,0-0.4,0c-0.7,0-1.4,0.4-2.1,1.1c-0.7,0.7-1.5,1.7-2.3,3
			s-1.6,2.6-2.4,4.2c-0.8,1.6-1.7,3.2-2.5,4.8c-0.5,0.9-0.9,1.6-1.2,2.2s-0.6,1-0.9,1.4c-0.3,0.3-0.6,0.6-0.9,0.7S25.3,60,25,60
			c-0.7,0-1.3-0.2-1.7-0.8s-0.6-1.2-0.6-2c0-0.4,0-1,0-1.7s0.1-1.5,0.1-2.3c0-0.8,0.1-1.7,0.1-2.6c0.1-0.9,0.1-1.8,0.1-2.6
			c0-0.8,0.1-1.6,0.1-2.2c0-0.6,0-1.1,0-1.5c0-0.7-0.1-1.2-0.4-1.6s-0.5-0.5-0.9-0.5c-0.3,0-0.6,0.1-1,0.3c-0.4,0.2-0.8,0.7-1.3,1.3
			c-0.4,0.5-0.9,1.2-1.5,2.2s-1.2,2-1.9,3.2c-0.7,1.2-1.3,2.4-2,3.6c-0.7,1.2-1.2,2.3-1.7,3.3c-0.6,1.2-1.2,2-1.8,2.4
			s-1.2,0.7-1.7,0.7c-0.8,0-1.4-0.2-1.8-0.7c-0.4-0.5-0.6-1.1-0.6-2c0-0.1,0-0.6,0.1-1.5s0.1-2,0.2-3.4c0.1-1.3,0.1-2.8,0.2-4.2
			s0.1-2.9,0.2-4.2c0-0.7,0-1.3-0.1-1.9s-0.2-0.9-0.3-1c-0.2,0.1-0.7,0.6-1.3,1.5S4,44.6,3,47c-0.1,0.3-0.3,0.5-0.6,0.7
			S1.8,48,1.5,48c-0.5,0-0.9-0.2-1.1-0.5S0,46.8,0,46.4c0-0.2,0-0.4,0.1-0.6c1.3-3,2.5-5.2,3.6-6.6C4.9,37.8,6,37,7.1,37
			c0.6,0,1.2,0.2,1.6,0.4c0.4,0.3,0.8,0.7,1,1.1s0.4,1,0.5,1.6c0.1,0.6,0.2,1.2,0.2,1.7c0,2.5-0.1,4.8-0.2,6.8
			C10.1,50.8,10,52.9,9.9,55L9.9,55z"/>
		<path class="st0" d="M87.4,47c-0.1,0.2-0.3,0.7-0.7,1.4c-0.3,0.7-0.8,1.5-1.3,2.5c-0.5,0.9-1.2,1.9-1.9,2.9
			c-0.7,1-1.5,1.9-2.4,2.8s-1.9,1.5-2.9,2.1c-1,0.5-2.1,0.8-3.3,0.8c-1.6,0-3-0.5-4.1-1.5c-1.1-1-1.9-2.3-2.4-3.9
			c-0.9,1.6-2.1,2.9-3.4,3.8c-1.3,0.9-2.6,1.4-3.9,1.4c-1,0-2-0.2-2.8-0.6s-1.5-0.9-2.1-1.6s-1-1.5-1.4-2.4s-0.5-1.9-0.5-3
			c0-2.2,0.4-4.1,1.1-5.8c0.7-1.7,1.7-3,2.8-4.2c1.2-1.1,2.4-2,3.8-2.5c1.4-0.6,2.7-0.8,4-0.8c0.9,0,1.7,0.1,2.4,0.4
			c0.7,0.2,1.3,0.5,1.9,0.8c0.5,0.3,0.9,0.5,1.2,0.8c0.3,0.2,0.4,0.4,0.5,0.4c0.3,0.4,0.5,0.7,0.5,1.1c0,0.4-0.2,0.8-0.5,1.1
			s-0.7,0.5-1.1,0.5c-0.4,0-0.8-0.2-1.1-0.5c-0.1-0.1-0.2-0.2-0.4-0.3s-0.5-0.3-0.8-0.5c-0.3-0.2-0.7-0.3-1.2-0.4s-1-0.2-1.6-0.2
			c-0.9,0-1.8,0.2-2.8,0.6s-1.9,1-2.7,1.8s-1.5,1.9-2,3.1s-0.8,2.7-0.8,4.4c0,0.5,0.1,1.1,0.2,1.6c0.1,0.5,0.3,1,0.6,1.5
			s0.7,0.8,1.1,1.1s1.1,0.4,1.8,0.4c0.5,0,1.1-0.2,1.7-0.5s1.3-0.8,1.9-1.5c0.6-0.7,1.2-1.6,1.6-2.6c0.5-1.1,0.8-2.3,1-3.8
			c0.1-0.4,0.2-0.7,0.5-1c0.3-0.3,0.7-0.4,1.1-0.4c0.4,0,0.7,0.2,1,0.5c0.3,0.3,0.4,0.7,0.5,1c0,0.5,0.1,1.3,0.2,2.2
			s0.3,1.9,0.6,2.9s0.7,1.8,1.3,2.5s1.4,1,2.4,1c0.7,0,1.3-0.2,2-0.5c0.7-0.4,1.3-0.8,1.9-1.5c0.6-0.6,1.2-1.3,1.8-2
			s1.1-1.5,1.6-2.3c0.5-0.8,0.9-1.5,1.3-2.3c0.4-0.7,0.7-1.4,0.9-1.9c0.1-0.3,0.3-0.5,0.6-0.7c0.3-0.2,0.6-0.2,0.9-0.2
			c0.5,0,0.9,0.2,1.2,0.5s0.4,0.7,0.4,1.1C87.6,46.6,87.5,46.8,87.4,47L87.4,47z"/>
		<path class="st0" d="M95.1,53.6c0.5,1.1,1.3,1.9,2.3,2.5s2.3,0.9,3.7,0.9c0.4,0,1.1-0.1,2.1-0.2c0.9-0.1,2.1-0.5,3.3-1.3
			c1.2-0.7,2.6-1.8,4-3.4c1.4-1.5,2.8-3.7,4.1-6.5c0.1-0.3,0.3-0.5,0.6-0.7c0.2-0.2,0.5-0.2,0.8-0.2c0.5,0,0.9,0.2,1.2,0.5
			c0.3,0.3,0.4,0.7,0.4,1.1c0,0.2-0.1,0.4-0.2,0.7c-1,2-2.1,3.9-3.3,5.5s-2.5,3-3.9,4.1s-2.9,2-4.4,2.6s-3.1,0.9-4.7,0.9
			c-1.3,0-2.4-0.2-3.5-0.6s-2.1-0.9-2.8-1.6c-0.8-0.7-1.4-1.4-1.9-2.2c-0.5-0.8-0.7-1.7-0.7-2.5c0-0.1,0-0.3,0-0.5s0.1-0.4,0.2-0.7
			c0.1-0.2,0.3-0.5,0.5-0.7c0.2-0.2,0.6-0.4,1-0.5c1.2-0.3,2.2-0.8,3.2-1.2c1-0.5,1.8-1,2.5-1.7c0.7-0.6,1.2-1.3,1.6-2
			c0.4-0.7,0.6-1.5,0.6-2.4c0-0.8-0.2-1.4-0.8-1.8S100,41,99.3,41s-1.5,0.3-2.2,0.8c-0.7,0.5-1.4,1.2-2.1,2s-1.3,1.8-1.9,2.9
			c-0.6,1.1-1.2,2.3-1.7,3.5s-1,2.4-1.4,3.6c-0.4,1.2-0.7,2.3-1,3.3c-0.1,0.3-0.2,0.6-0.3,1c-0.1,0.4-0.2,0.7-0.4,1
			c-0.2,0.3-0.4,0.6-0.7,0.8s-0.6,0.3-1.1,0.3c-0.4,0-0.8-0.2-1.2-0.5c-0.4-0.3-0.6-0.9-0.6-1.8c0-0.2,0-0.8,0-1.9
			c0-1.1,0-2.6,0.1-4.4s0.1-3.9,0.1-6.2s0.1-4.8,0.1-7.4c0-2.6,0.1-5.3,0.1-8.1s0.1-5.5,0.1-8.1s0.1-5.1,0.1-7.5s0.1-4.5,0.1-6.3
			c0-1.8,0.1-3.3,0.1-4.5c0-1.2,0-1.9,0-2.1c0-0.5,0.2-0.8,0.5-1.1C86.3,0.2,86.6,0,87,0c0.4,0,0.8,0.2,1.1,0.4s0.5,0.7,0.5,1.1
			c0,0.1,0,0.6,0,1.7c0,1,0,2.5-0.1,4.2c0,1.8-0.1,3.8-0.1,6.2s-0.1,4.8-0.1,7.5c0,2.6-0.1,5.4-0.1,8.1s-0.1,5.5-0.1,8.2
			c0,2.7-0.1,5.2-0.1,7.6c0,2.4-0.1,4.5-0.1,6.4c0.4-1.4,1-2.9,1.7-4.5c0.7-1.6,1.5-3,2.5-4.4c0.9-1.3,2-2.4,3.2-3.3
			c1.2-0.9,2.5-1.3,4-1.3c0.8,0,1.6,0.2,2.3,0.4c0.7,0.3,1.3,0.7,1.8,1.2c0.5,0.5,0.9,1.1,1.2,1.8c0.3,0.7,0.4,1.5,0.4,2.3
			c0,1.3-0.3,2.4-0.8,3.5s-1.3,2-2.2,2.8c-0.9,0.8-2,1.5-3.2,2.2C97.6,52.7,96.3,53.2,95.1,53.6L95.1,53.6z"/>
		<path class="st0" d="M119.5,54.1c0.6,0.8,1.3,1.5,2.3,2s2.1,0.7,3.4,0.7s2.6-0.3,3.7-1s2.1-1.5,3.1-2.6c0.9-1.1,1.8-2.2,2.5-3.6
			c0.7-1.3,1.4-2.6,2-3.9c0.1-0.3,0.3-0.5,0.6-0.7c0.2-0.2,0.5-0.2,0.8-0.2c0.5,0,0.9,0.2,1.1,0.5c0.3,0.3,0.4,0.7,0.4,1.1
			c0,0.1,0,0.3,0,0.4c0,0.1-0.1,0.2-0.1,0.3c-1.9,4.2-4,7.5-6.3,9.6c-2.3,2.2-4.9,3.2-7.7,3.3c-1.8,0-3.4-0.4-4.8-1.1
			s-2.4-1.6-3.3-2.8c-0.9-1.1-1.5-2.4-1.9-3.8c-0.4-1.4-0.6-2.8-0.6-4.3s0.2-2.7,0.5-3.9c0.3-1.2,0.8-2.2,1.5-3.1s1.4-1.6,2.3-2.1
			c0.9-0.5,1.9-0.8,3-0.8c0.6,0,1.3,0.1,1.9,0.4c0.6,0.3,1.2,0.6,1.7,1.1c0.5,0.5,0.9,1.1,1.2,1.8c0.3,0.7,0.5,1.5,0.5,2.4
			c0,1.2-0.2,2.2-0.6,3.2s-0.9,1.9-1.6,2.8c-0.7,0.9-1.5,1.7-2.4,2.4S120.6,53.6,119.5,54.1L119.5,54.1z M118.3,51.4
			c0.9-0.4,1.7-0.8,2.4-1.4s1.3-1.2,1.8-1.8c0.5-0.7,0.9-1.4,1.2-2.1c0.3-0.7,0.4-1.5,0.4-2.2c0-0.8-0.2-1.5-0.6-1.9
			c-0.4-0.4-0.9-0.7-1.5-0.7c-0.8,0-1.4,0.2-1.9,0.6c-0.5,0.4-1,1-1.3,1.6s-0.6,1.4-0.7,2.2c-0.2,0.8-0.2,1.6-0.2,2.5
			c0,0.5,0.1,1,0.2,1.6S118.1,50.9,118.3,51.4L118.3,51.4z"/>
		<path class="st0" d="M146.1,55c0.4-0.8,1-1.9,1.6-3.1c0.7-1.2,1.3-2.5,2.1-3.8s1.4-2.4,2.1-3.6c0.7-1.1,1.3-2,1.7-2.6
			c0.8-1,1.6-1.7,2.5-2.1c0.9-0.4,1.7-0.6,2.4-0.6s1.4,0.2,1.9,0.5c0.5,0.3,0.9,0.7,1.3,1.2s0.6,1.1,0.8,1.8
			c0.2,0.7,0.2,1.4,0.2,2.2c0,0.5,0,1-0.1,1.8s-0.1,1.5-0.1,2.3s-0.1,1.7-0.1,2.6c0,0.9-0.1,1.7-0.1,2.5c0.4-0.8,0.9-1.8,1.4-2.8
			s1.1-2,1.6-3s1.1-2,1.6-2.8s1-1.6,1.4-2.2c1.2-1.7,2.3-2.8,3.4-3.3s2-0.8,2.8-0.8c0.9,0,1.7,0.2,2.4,0.5c0.6,0.3,1.1,0.8,1.4,1.3
			c0.4,0.5,0.6,1.2,0.7,1.8s0.2,1.3,0.2,1.9c0,1-0.1,1.9-0.2,3c-0.1,1-0.2,2.3-0.2,3.7c0,0.6,0,1.2,0.1,1.8c0.1,0.6,0.2,1.1,0.4,1.5
			c0.2,0.5,0.5,0.8,0.9,1.1s0.9,0.4,1.6,0.4c0.7,0,1.4-0.2,2.1-0.6s1.4-0.9,2-1.5c0.6-0.6,1.2-1.3,1.8-2.1c0.6-0.8,1.1-1.6,1.6-2.3
			c0.5-0.8,0.9-1.5,1.3-2.2c0.4-0.7,0.7-1.3,0.9-1.8c0.1-0.3,0.3-0.5,0.6-0.7s0.5-0.2,0.8-0.2c0.5,0,0.9,0.2,1.1,0.5
			s0.4,0.7,0.4,1.1c0,0.2,0,0.4-0.1,0.6c-0.1,0.2-0.3,0.7-0.7,1.4c-0.3,0.7-0.8,1.5-1.3,2.4s-1.2,1.9-1.9,2.9
			c-0.7,1-1.6,1.9-2.4,2.8c-0.9,0.8-1.9,1.5-2.9,2.1c-1,0.5-2.1,0.8-3.3,0.8c-1.2,0-2.2-0.2-3-0.7s-1.4-1-1.8-1.7
			c-0.5-0.7-0.8-1.6-0.9-2.5c-0.2-1-0.2-1.9-0.2-3c0-1.4,0.1-2.6,0.2-3.8s0.2-2.1,0.2-2.7c0-0.7-0.1-1.2-0.2-1.6s-0.3-0.6-0.5-0.8
			c-0.2-0.2-0.4-0.2-0.5-0.2c-0.2,0-0.3,0-0.4,0c-0.7,0-1.4,0.4-2.1,1.1c-0.7,0.7-1.5,1.7-2.3,3s-1.6,2.6-2.4,4.2
			c-0.8,1.6-1.7,3.2-2.5,4.8c-0.5,0.9-0.9,1.6-1.2,2.2s-0.6,1-0.9,1.4c-0.3,0.3-0.6,0.6-0.9,0.7s-0.6,0.2-0.9,0.2
			c-0.7,0-1.3-0.2-1.7-0.8s-0.6-1.2-0.6-2c0-0.4,0-1,0-1.7s0.1-1.5,0.1-2.3c0-0.8,0.1-1.7,0.1-2.6c0.1-0.9,0.1-1.8,0.1-2.6
			c0-0.8,0.1-1.6,0.1-2.2c0-0.6,0-1.1,0-1.5c0-0.7-0.1-1.2-0.4-1.6s-0.5-0.5-0.9-0.5c-0.3,0-0.6,0.1-1,0.3c-0.4,0.2-0.8,0.7-1.3,1.3
			c-0.4,0.5-0.9,1.2-1.5,2.2s-1.2,2-1.9,3.2c-0.7,1.2-1.3,2.4-2,3.6c-0.7,1.2-1.2,2.3-1.7,3.3c-0.6,1.2-1.2,2-1.8,2.4
			s-1.2,0.7-1.7,0.7c-0.8,0-1.4-0.2-1.8-0.7c-0.4-0.5-0.6-1.1-0.6-2c0-0.1,0-0.6,0.1-1.5s0.1-2,0.1-3.4c0.1-1.3,0.1-2.8,0.2-4.2
			s0.1-2.9,0.2-4.2c0-0.7,0-1.3-0.1-1.9s-0.2-0.9-0.3-1c-0.2,0.1-0.7,0.6-1.3,1.5s-1.5,2.7-2.5,5.1c-0.1,0.3-0.4,0.5-0.6,0.7
			s-0.6,0.2-0.9,0.2c-0.5,0-0.9-0.2-1.1-0.5s-0.4-0.7-0.4-1.1c0-0.2,0-0.4,0.1-0.6c1.3-3,2.5-5.2,3.6-6.6c1.1-1.4,2.3-2.1,3.4-2.1
			c0.6,0,1.2,0.2,1.6,0.4c0.4,0.3,0.8,0.7,1,1.1s0.4,1,0.5,1.6c0.1,0.6,0.2,1.2,0.2,1.7c0,2.5-0.1,4.8-0.2,6.8S146.2,52.9,146.1,55
			L146.1,55z"/>
		<path class="st0" d="M206.9,59.3c1-1,2-2,3-3c1-1,2-2.1,2.9-3.2s1.8-2.3,2.7-3.5c0.8-1.2,1.6-2.5,2.2-3.9c0.1-0.3,0.3-0.5,0.6-0.7
			c0.2-0.2,0.5-0.2,0.8-0.2c0.5,0,0.9,0.2,1.1,0.5c0.3,0.3,0.4,0.7,0.4,1.1c0,0.2,0,0.4-0.1,0.6c-0.9,1.8-1.9,3.5-3,5
			c-1.1,1.5-2.3,2.9-3.5,4.3c-1.2,1.4-2.5,2.7-3.7,3.9c-1.3,1.3-2.5,2.5-3.6,3.8c-0.1,1.9-0.1,3.9,0,5.8s0.2,4,0.2,6.2
			c0,1.8-0.1,3.6-0.2,5.4s-0.3,3.5-0.5,5.1s-0.6,3.2-1,4.6s-1,2.7-1.6,3.7c-0.7,1.1-1.4,1.9-2.4,2.5s-1.9,0.9-3.1,0.9
			c-2,0-3.5-0.7-4.6-2.1c-1.1-1.4-1.6-3.3-1.6-5.7c0-1.3,0.1-2.8,0.4-4.3c0.3-1.5,0.7-3.1,1.2-4.8c0.5-1.6,1.2-3.3,1.9-5
			s1.5-3.3,2.4-4.9c0.9-1.6,1.8-3.1,2.8-4.6c1-1.4,2-2.8,3-3.9c0.1-1.3,0.1-2.7,0.2-4.2s0.1-2.8,0.2-4c-0.7,1.3-1.6,2.3-2.7,3.1
			c-1.1,0.8-2.3,1.2-3.5,1.2c-2.1,0-3.8-0.7-5-2.1c-1.2-1.4-1.8-3.4-1.8-5.9c0-1.8,0.2-3.5,0.5-5c0.4-1.5,0.7-2.8,1.1-3.9
			c0.4-1.1,0.8-1.9,1.1-2.5s0.5-0.8,0.5-0.8c0.3-0.5,0.7-0.7,1.3-0.7c0.5,0,0.9,0.2,1.1,0.5s0.4,0.7,0.4,1.1c0,0.3-0.1,0.6-0.2,0.8
			c0,0-0.1,0.2-0.4,0.7c-0.3,0.5-0.6,1.2-1,2.1s-0.7,2-1,3.3c-0.3,1.3-0.4,2.7-0.4,4.2s0.3,2.7,0.8,3.6c0.6,0.9,1.5,1.3,2.7,1.3
			c1.6,0,3-1.2,4.3-3.5s2.4-5.8,3.3-10.3c0.1-0.4,0.2-0.7,0.5-0.9s0.6-0.4,1-0.4c0.4,0,0.8,0.2,1.1,0.5c0.3,0.3,0.5,0.7,0.5,1.1
			c0,0.1-0.1,0.6-0.2,1.5s-0.2,2.1-0.4,3.6s-0.3,3.3-0.5,5.3S207,57,206.9,59.3L206.9,59.3z M203.5,68.2c-1.3,1.8-2.4,3.7-3.5,5.7
			c-1.1,2-1.9,4-2.7,6c-0.8,2-1.3,3.9-1.8,5.7S195,89,195,90.5s0.2,2.6,0.7,3.4s1.2,1.2,2.3,1.2c0.9,0,1.7-0.4,2.4-1.4
			c0.7-0.9,1.3-2.2,1.8-3.9s0.9-3.7,1.1-6.1s0.4-5.1,0.4-8c0-1.2,0-2.4-0.1-3.7S203.6,69.6,203.5,68.2L203.5,68.2z"/>
		<path class="st0" d="M245.1,47.1c-0.2,0.3-0.5,0.9-0.9,1.7c-0.4,0.8-0.9,1.7-1.6,2.8s-1.5,2.1-2.4,3.2s-2,2.1-3.3,3
			s-2.6,1.7-4.1,2.2c-1.5,0.6-3.2,0.9-5,0.9c-1.6,0-3-0.3-4.2-0.9s-2.3-1.4-3.1-2.4s-1.5-2.3-2-3.7s-0.7-3-0.7-4.7s0.2-3.2,0.7-4.7
			c0.5-1.5,1.1-2.8,1.9-3.8s1.8-2,2.9-2.6s2.2-0.9,3.5-0.9c0.9,0,1.8,0.2,2.5,0.5s1.4,0.8,1.9,1.3s0.9,1.1,1.2,1.8
			c0.3,0.6,0.4,1.3,0.4,1.9s-0.1,1.2-0.2,1.7c-0.1,0.5-0.4,1-0.6,1.4c-0.2,0.4-0.5,0.7-0.8,1c-0.3,0.2-0.6,0.4-0.9,0.4
			c-0.5,0-0.9-0.2-1.1-0.5c-0.3-0.3-0.4-0.7-0.4-1.1c0-0.2,0.1-0.4,0.1-0.6c0.1-0.2,0.2-0.3,0.3-0.5c0.1-0.2,0.2-0.4,0.3-0.7
			c0.1-0.3,0.1-0.6,0.1-1c0-0.6-0.3-1.1-0.8-1.6c-0.5-0.5-1.2-0.7-2.1-0.7c-0.8,0-1.5,0.2-2.2,0.7c-0.7,0.5-1.3,1.1-1.9,1.9
			c-0.5,0.8-1,1.7-1.3,2.8c-0.3,1.1-0.5,2.2-0.5,3.4s0.1,2.2,0.4,3.3s0.7,2,1.3,2.8s1.3,1.4,2.1,1.9c0.9,0.5,1.9,0.7,3,0.7
			c1.5,0,2.9-0.3,4.2-0.8c1.3-0.5,2.5-1.2,3.5-2.1c1.1-0.8,2-1.8,2.8-2.8s1.5-1.9,2.1-2.8c0.6-0.9,1-1.7,1.3-2.3s0.5-1.1,0.6-1.2
			c0.1-0.3,0.3-0.5,0.6-0.7c0.3-0.2,0.6-0.2,0.9-0.2c0.5,0,0.9,0.2,1.1,0.5c0.3,0.3,0.4,0.7,0.4,1.1
			C245.2,46.6,245.2,46.9,245.1,47.1L245.1,47.1z"/>
		<path class="st0" d="M274.6,47c-0.1,0.2-0.3,0.7-0.7,1.4c-0.4,0.7-0.8,1.5-1.3,2.5c-0.5,0.9-1.2,1.9-1.9,2.9
			c-0.7,1-1.5,1.9-2.4,2.8c-0.9,0.8-1.9,1.5-2.9,2.1c-1,0.5-2.1,0.8-3.3,0.8c-1.6,0-3-0.5-4.1-1.5c-1.1-1-1.9-2.3-2.4-3.9
			c-0.9,1.6-2.1,2.9-3.4,3.8c-1.3,0.9-2.6,1.4-3.9,1.4c-1,0-2-0.2-2.8-0.6s-1.6-0.9-2.1-1.6s-1-1.5-1.4-2.4s-0.5-1.9-0.5-3
			c0-2.2,0.4-4.1,1.1-5.8c0.7-1.7,1.7-3,2.8-4.2c1.1-1.1,2.4-2,3.8-2.5c1.4-0.6,2.7-0.8,4-0.8c0.9,0,1.7,0.1,2.4,0.4
			s1.3,0.5,1.9,0.8s0.9,0.5,1.2,0.8s0.4,0.4,0.5,0.4c0.3,0.4,0.5,0.7,0.5,1.1c0,0.4-0.1,0.8-0.5,1.1s-0.7,0.5-1.1,0.5
			c-0.5,0-0.8-0.2-1.1-0.5c-0.1-0.1-0.2-0.2-0.4-0.3s-0.5-0.3-0.8-0.5c-0.3-0.2-0.7-0.3-1.2-0.4s-1-0.2-1.6-0.2
			c-0.9,0-1.8,0.2-2.8,0.6c-1,0.4-1.9,1-2.7,1.8s-1.5,1.9-2,3.1s-0.8,2.7-0.8,4.4c0,0.5,0.1,1.1,0.2,1.6s0.3,1,0.6,1.5
			s0.7,0.8,1.1,1.1c0.5,0.3,1.1,0.4,1.8,0.4c0.5,0,1.1-0.2,1.7-0.5s1.3-0.8,1.9-1.5s1.1-1.6,1.6-2.6c0.5-1.1,0.8-2.3,1-3.8
			c0.1-0.4,0.2-0.7,0.5-1c0.3-0.3,0.7-0.4,1.1-0.4c0.4,0,0.7,0.2,1,0.5c0.3,0.3,0.5,0.7,0.5,1c0,0.5,0.1,1.3,0.2,2.2
			s0.3,1.9,0.6,2.9c0.3,1,0.7,1.8,1.3,2.5s1.4,1,2.4,1c0.7,0,1.3-0.2,2-0.5s1.3-0.8,1.9-1.5c0.6-0.6,1.2-1.3,1.8-2
			c0.6-0.8,1.1-1.5,1.6-2.3c0.5-0.8,0.9-1.5,1.3-2.3c0.4-0.7,0.7-1.4,0.9-1.9c0.1-0.3,0.3-0.5,0.6-0.7s0.5-0.2,0.9-0.2
			c0.5,0,0.9,0.2,1.1,0.5c0.3,0.3,0.4,0.7,0.4,1.1C274.7,46.6,274.7,46.8,274.6,47L274.6,47z"/>
		<path class="st0" d="M276.1,41.5c-0.1,0.8-0.2,1.5-0.4,2.1s-0.3,1.2-0.5,1.7c-0.1,0.5-0.3,0.9-0.4,1.2c-0.1,0.3-0.2,0.5-0.2,0.5
			c-0.3,0.6-0.8,1-1.5,1c-0.4,0-0.8-0.2-1.1-0.4c-0.3-0.3-0.5-0.7-0.5-1.1c0-0.2,0-0.3,0.1-0.4c0.1-0.1,0.1-0.2,0.2-0.5
			s0.2-0.7,0.4-1.3s0.4-1.5,0.6-2.7c-0.5,0-1,0-1.5,0c-0.5,0-1-0.1-1.4-0.3c-0.4-0.2-0.8-0.4-1.1-0.8c-0.3-0.4-0.4-0.9-0.4-1.5
			c0-0.5,0.1-1.1,0.4-1.9s0.6-1.6,1.1-2.4s1-1.5,1.5-2s1.1-0.9,1.7-0.9c0.6,0,1.2,0.2,1.6,0.7c0.4,0.5,0.7,1,0.9,1.7
			s0.4,1.4,0.5,2.2c0.1,0.8,0.1,1.4,0.1,2c0.5,0,0.9,0,1.4,0c0.5,0,0.9,0,1.3,0c1.6,0,2.8,0.3,3.6,1s1.3,1.8,1.3,3.4
			c0,0.6,0,1.3-0.1,2s-0.2,1.4-0.3,2.2s-0.2,1.5-0.3,2.2s-0.1,1.4-0.1,2.1c0,1,0.1,1.8,0.4,2.5c0.3,0.7,0.6,1.2,1,1.6
			c0.4,0.4,0.9,0.7,1.3,0.8c0.5,0.2,0.9,0.2,1.3,0.2c1.2,0,2.3-0.4,3.4-1.2c1.1-0.8,2-1.7,2.9-2.8c0.9-1.1,1.7-2.3,2.4-3.5
			s1.3-2.3,1.8-3.2c0.1-0.2,0.3-0.5,0.6-0.6s0.5-0.2,0.8-0.2c0.5,0,0.9,0.2,1.2,0.5s0.4,0.7,0.4,1.1c0,0.3-0.1,0.5-0.2,0.8
			c-0.6,1.2-1.4,2.4-2.2,3.9c-0.9,1.4-1.8,2.8-2.9,4c-1.1,1.3-2.3,2.3-3.7,3.2c-1.4,0.9-2.8,1.3-4.5,1.3c-1,0-2-0.2-2.9-0.6
			s-1.7-0.9-2.3-1.6c-0.7-0.7-1.2-1.6-1.6-2.6s-0.6-2.2-0.6-3.5c0-1.4,0.1-2.8,0.4-4.2s0.4-2.7,0.4-4c0-0.5-0.1-0.9-0.4-1.2
			s-0.8-0.4-1.6-0.4h-1.3C277.1,41.5,276.6,41.5,276.1,41.5z M273.3,38.4c0-0.2,0-0.5,0-0.8c0-0.3,0-0.6-0.1-0.9
			c0-0.3-0.1-0.6-0.2-0.8c-0.1-0.2-0.1-0.3-0.2-0.3s-0.2,0.1-0.3,0.3c-0.1,0.2-0.3,0.5-0.4,0.8s-0.3,0.6-0.4,0.9
			c-0.1,0.3-0.2,0.6-0.2,0.8L273.3,38.4L273.3,38.4z"/>
		<path class="st0" d="M373.4,1.6h-35.5c-4.9,0-8.9,4-8.9,8.9v17.6c0,3.9,0.2,7.9,0.1,11.8c-0.1,3.2-0.5,6.4-1.7,9.3
			c-0.7,1.6-1.6,3-2.8,4.3c-1.1,1.2-2.9,2.7-4.6,2.7c-2.6,0-4.6-3.2-6-9.7c0.8-1.8,1.6-4,2.5-6.5c0.9-2.5,1.8-5.3,2.6-8.2
			s1.5-6.1,2.1-9.3c0.5-3.2,0.8-6.5,0.8-9.7c0-1.5-0.1-2.9-0.3-4.1c-0.2-1.2-0.5-2.3-0.9-3.2c-0.4-0.9-0.9-1.6-1.6-2.1
			c-0.6-0.5-1.4-0.8-2.4-0.8c-1,0-2,0.3-2.8,1.1c-0.8,0.7-1.5,1.7-2.1,2.9c-0.6,1.2-1.1,2.6-1.5,4.3s-0.8,3.3-1,5.1
			c-0.2,1.8-0.4,3.6-0.5,5.5c-0.1,1.9-0.2,3.7-0.2,5.4c0,4,0.2,7.6,0.6,10.8c0.4,3.2,0.8,6,1.3,8.5c-0.8,2.1-1.6,3.8-2.3,5.1
			c-0.7,1.3-1.3,2.3-1.9,3c-0.6,0.7-1.1,1.2-1.6,1.4s-1,0.3-1.4,0.3c-0.8,0-1.5-0.2-2-0.6c-0.2-0.2-0.4-0.3-0.5-0.5
			c-0.6-0.8-0.9-1.9-0.9-3.3c0-1.7,0.3-3.2,0.8-4.4s1.2-2.2,2-3c0.5-0.5,1.1-1,1.8-1.4c0.3-0.2,0.6-0.3,0.9-0.5
			c1-0.4,1.8-0.7,2.7-0.8c0.4,0,0.8-0.2,1-0.5c0.2-0.3,0.4-0.7,0.4-1c0-0.5-0.1-0.8-0.5-1.1s-0.7-0.4-1.1-0.4c-1.3,0-2.6,0.3-3.9,1
			c-0.7,0.3-1.4,0.8-2,1.2c-0.5,0.4-1.1,0.9-1.6,1.5c-1.1,1.2-1.9,2.5-2.6,4.2c-0.7,1.6-1,3.4-1,5.3c0,1.4,0.2,2.6,0.5,3.5
			c0.4,1,0.8,1.8,1.4,2.4c0.2,0.2,0.4,0.4,0.6,0.5c0.4,0.3,0.9,0.6,1.5,0.8c0.8,0.3,1.6,0.4,2.4,0.4c1.6,0,3.1-0.7,4.5-1.9
			c1.4-1.3,2.7-3.3,4.1-6.2c1,3,2.1,5.1,3.5,6.4s3,2,4.8,2c3.7,0,6.8-3.7,8.6-6.5c2.2-3.5,3.1-7.4,3.2-11.5V10.6
			c0-3.2,2.6-5.8,5.8-5.8h35.5c3.2,0,5.8,2.6,5.8,5.8v79.4c0,3.2-2.6,5.8-5.8,5.8h-35.5c-3.2,0-5.8-2.6-5.8-5.8v-31
			c0-0.9-0.7-1.6-1.6-1.6c-0.9,0-1.6,0.7-1.6,1.6v31c0,4.9,4,8.9,8.9,8.9h35.5c4.9,0,8.9-4,8.9-8.9V10.6
			C382.3,5.6,378.3,1.6,373.4,1.6L373.4,1.6z M312.3,34.2c-0.2-2.5-0.3-4.9-0.3-7.4s0.1-5.1,0.4-7.6c0.3-2.5,0.6-4.8,1.1-6.8
			c0.5-2,1-3.6,1.6-4.8s1.2-1.8,2-1.8c0.4,0,0.8,0.2,1,0.7c0.2,0.5,0.5,1.1,0.6,1.8c0.2,0.7,0.2,1.5,0.3,2.3c0,0.8,0.1,1.6,0.1,2.3
			c0,2.4-0.2,4.8-0.5,7.2s-0.8,4.8-1.3,7.2c-0.5,2.4-1.2,4.7-1.9,7c-0.7,2.3-1.5,4.5-2.3,6.6C312.7,38.8,312.5,36.7,312.3,34.2
			L312.3,34.2z"/>
	</g>
</g>
</svg>
