<?xml version="1.0" encoding="utf-8"?>
<!-- Generator: Adobe Illustrator 27.7.0, SVG Export Plug-In . SVG Version: 6.00 Build 0)  -->
<svg version="1.1" id="Layer_1" xmlns="http://www.w3.org/2000/svg" xmlns:xlink="http://www.w3.org/1999/xlink" x="0px" y="0px"
	 viewBox="0 0 40 40" style="enable-background:new 0 0 40 40;" xml:space="preserve">
<style type="text/css">
	.st0{fill:#1D1D1F;}
	.st1{fill:#FFFFFF;}
</style>
<g>
	<circle class="st0" cx="20" cy="20" r="20"/>
	<path class="st1" d="M25.3,19.2c-0.1,0-0.2-0.1-0.3-0.1c-0.2-3.2-1.9-5-4.8-5c0,0,0,0,0,0c-1.7,0-3.2,0.7-4.1,2.1l1.6,1.1
		c0.7-1,1.7-1.2,2.5-1.2c0,0,0,0,0,0c1,0,1.7,0.3,2.1,0.8c0.3,0.4,0.6,0.9,0.7,1.6c-0.8-0.1-1.8-0.2-2.7-0.1c-2.8,0.2-4.5,1.8-4.4,4
		c0.1,1.1,0.6,2.1,1.6,2.7c0.8,0.5,1.9,0.8,3,0.7c1.4-0.1,2.6-0.6,3.4-1.6c0.6-0.8,1-1.8,1.1-3c0.7,0.4,1.2,1,1.5,1.6
		c0.5,1.1,0.5,2.9-1,4.4c-1.3,1.3-2.9,1.9-5.3,1.9c-2.6,0-4.6-0.9-5.9-2.5c-1.2-1.5-1.8-3.8-1.9-6.6c0-2.9,0.7-5.1,1.9-6.6
		c1.3-1.6,3.3-2.5,5.9-2.5c2.7,0,4.7,0.9,6,2.5c0.7,0.8,1.2,1.8,1.5,3l1.9-0.5c-0.4-1.5-1-2.7-1.9-3.8c-1.7-2.1-4.2-3.2-7.5-3.2h0
		c-3.2,0-5.7,1.1-7.4,3.2c-1.5,1.9-2.3,4.5-2.3,7.8l0,0l0,0c0,3.3,0.8,5.9,2.3,7.8c1.7,2.1,4.2,3.2,7.4,3.2h0c2.9,0,4.9-0.8,6.6-2.4
		c2.2-2.2,2.1-4.9,1.4-6.6C27.6,20.8,26.7,19.8,25.3,19.2z M20.3,23.9c-1.2,0.1-2.5-0.5-2.5-1.6c0-0.9,0.6-1.8,2.6-1.9
		c0.2,0,0.4,0,0.7,0c0.7,0,1.4,0.1,2,0.2C22.9,23.3,21.5,23.8,20.3,23.9z"/>
</g>
</svg>
