<?xml version="1.0" encoding="utf-8"?>
<!-- Generator: Adobe Illustrator 27.9.0, SVG Export Plug-In . SVG Version: 6.00 Build 0)  -->
<svg version="1.1" id="Layer_1" xmlns="http://www.w3.org/2000/svg" xmlns:xlink="http://www.w3.org/1999/xlink" x="0px" y="0px"
	 viewBox="0 0 40 40" style="enable-background:new 0 0 40 40;" xml:space="preserve">
<style type="text/css">
	.st0{fill:#231F20;}
</style>
<g>
	<polygon class="st0" points="17.9,23.2 23.5,20 17.9,16.8 	"/>
	<path class="st0" d="M20,0.5C9.2,0.5,0.5,9.2,0.5,20c0,10.8,8.7,19.5,19.5,19.5S39.5,30.8,39.5,20C39.5,9.2,30.8,0.5,20,0.5z
		 M30.2,25.1c-0.2,0.9-1,1.6-1.9,1.9c-2.6,0.6-14.1,0.6-16.6,0c-0.9-0.2-1.6-1-1.9-1.9c-0.6-2.5-0.6-7.7,0-10.2
		c0.2-0.9,1-1.6,1.9-1.9c3.4-0.7,15.3-0.5,16.6,0c0.9,0.2,1.6,1,1.9,1.9C30.8,17.5,30.7,22.4,30.2,25.1z"/>
</g>
</svg>
