<?xml version="1.0" standalone="no"?>
<!DOCTYPE svg PUBLIC "-//W3C//DTD SVG 20010904//EN"
 "http://www.w3.org/TR/2001/REC-SVG-20010904/DTD/svg10.dtd">
<svg version="1.0" xmlns="http://www.w3.org/2000/svg"
 width="283.000000pt" height="283.000000pt" viewBox="0 0 283.000000 283.000000"
 preserveAspectRatio="xMidYMid meet">
<metadata>
Created by potrace 1.14, written by Peter Selinger 2001-2017
</metadata>
<g transform="translate(0.000000,283.000000) scale(0.100000,-0.100000)"
fill="#fff" stroke="none">
<path d="M690 2089 c-110 -17 -139 -27 -238 -77 -111 -56 -228 -175 -287 -291
-86 -169 -95 -378 -26 -561 41 -110 146 -241 249 -312 192 -133 458 -154 675
-55 32 14 71 36 88 47 l29 21 0 -54 0 -55 118 2 117 1 1 100 1 100 -101 177
c-55 97 -104 173 -107 170 -4 -4 -12 -24 -19 -45 -15 -47 -72 -130 -117 -171
-158 -141 -374 -157 -550 -40 -152 101 -225 297 -178 479 52 198 247 341 451
329 116 -7 245 -68 310 -147 16 -20 103 -163 193 -319 207 -357 228 -391 293
-456 139 -140 300 -203 505 -199 61 1 114 5 118 8 3 4 -23 55 -58 115 l-63
109 -41 2 c-100 4 -212 54 -286 128 -39 39 -93 122 -216 336 -238 414 -258
442 -367 527 -54 42 -173 97 -250 117 -70 18 -179 24 -244 14z"/>
<path d="M2020 2093 c-205 -23 -374 -118 -494 -277 l-36 -49 40 -73 c22 -40
55 -97 73 -127 l33 -55 34 76 c107 238 379 335 609 217 99 -50 176 -140 218
-255 17 -43 20 -75 18 -145 -1 -50 -7 -106 -13 -125 -14 -42 -73 -142 -87
-147 -5 -1 -57 80 -115 182 -58 101 -109 185 -114 185 -5 0 -53 -26 -107 -57
l-98 -57 18 -30 c16 -27 169 -290 221 -381 10 -16 31 -54 49 -83 17 -29 31
-56 31 -60 1 -4 9 -17 20 -30 l19 -23 43 22 c129 65 237 175 305 310 103 206
89 474 -36 665 -97 150 -247 258 -414 299 -65 15 -163 23 -217 18z"/>
</g>
</svg>
