<?xml version="1.0" encoding="UTF-8"?><svg id="b" xmlns="http://www.w3.org/2000/svg" viewBox="0 0 299.4 286.74"><defs><style>.d{fill:#fff;}</style></defs><g id="c"><path class="d" d="m146.83,140.67c-20.78-.31-33.03-13-44.94-25.97-15.64-17.01-25.62-37.62-36.09-57.91-5.99-11.6-8.97-18.97-15.12-30.64-3.15-5.99-8.02-14.21-12.74-21.66-1.46-2.3.75-5.17,3.35-4.34,3.97,1.27,8.02,2.59,11.48,3.96,32.8,12.95,62.52,31.15,89.85,53.33,15.29,12.4,27.43,27.28,35.12,47.07,2.75-6.68,4.91-12.11,7.21-17.47,1.34-3.13,2.76-6.25,4.41-9.22,5.52-9.93,13.98-19.57,27.48-20.38,9.53-.58,17.8,2.85,22.53,5.4,3.12,1.68,8.58,3.06,12.13,3.07,4.76.01,10.17-.42,18.15-.35,13.61.12,20.39,3.01,22.46,3.73,2.07.72,4.8,2.28,5.9,3.45.6.64,1.13,1.18,1.36,1.7.1.23-.12.47-.36.38-13.26-4.61-20.19-5.69-28.9-5.03-4.24.32-10.07,1.36-13.89,2.83-4.98,1.91-12.79,7.28-16.17,11.16-10.18,11.68-15.01,22.39-18.83,37.58-1.77,7.03-3.61,14.05-5.67,21-6.57,22.23-20.47,37.87-41.9,47-15.48,6.6-31.01,13.19-46,20.8-17.39,8.83-37.22,29.45-42.68,37.88-5.46,8.43-26.36,38.71-54.6,38.71-13.03,0-24.22-3.17-27.46-4.18-.46-.15-.79-.53-.73-1.01.07-.53.51-.99,1.17-.85,3.73.77,15.8,3.42,26.39,1.99,12.66-1.71,26.07-11.36,38.43-30.79,12.36-19.43,16.88-30.52,26.77-47.27,9.79-16.58,24.9-46.25,51.88-63.94Z"/><path class="d" d="m135.05,144.67s-1.16,1.67-1.26,1.79c-.62.84-1.3,1.61-2.09,2.28-1.66,1.41-3.69,2.38-5.83,2.79-2.41.47-4.95.19-7.33-.28-2.16-.43-4.32-.89-6.44-1.48-2.28-.63-4.54-1.36-6.76-2.17-4.41-1.62-8.67-3.61-12.76-5.91-4.12-2.31-8.05-4.94-11.79-7.83-1.29-.99-2.56-2.02-3.8-3.07-9.57-8.11-18.41-17.09-27.47-25.79-15.35-14.77-30.6-29.65-45.93-44.44-.57-.55-1.74-1.61-2.97-2.72-1.35-1.22-.39-3.46,1.43-3.31,7.05.59,18.93,1.62,25.12,2.48,9.06,1.25,17.23,2.4,26.98,4.72,7.02,1.67,11.56,4.79,14.95,11.24,5.65,10.72,11.91,21.16,18.58,31.29,11.79,17.9,26.26,32.97,47.36,40.4Z"/></g></svg>